<?xml version="1.0" encoding="UTF-8" standalone="no"?>
<!DOCTYPE svg  PUBLIC '-//W3C//DTD SVG 1.1//EN'  'http://www.w3.org/Graphics/SVG/1.1/DTD/svg11.dtd'>
<svg xmlns="http://www.w3.org/2000/svg">
<defs>
<font id="Radikal-Regular" horiz-adv-x="575">
<font-face underline-position="-50" font-weight="400" descent="-200" panose-1="0 0 0 0 0 0 0 0 0 0" units-per-em="1000" unicode-range="U+0020-FB01" bbox="-162 -297 1240 1075" x-height="502" underline-thickness="50" font-family="Radikal" ascent="800" cap-height="735"/>
<missing-glyph d="M112 590v-489l154 245zM295 300l-160 -250h318zM480 595l-158 -249l158 -250v499zM458 650h-326l163 -259zM63 699h466v-699h-466v699z" horiz-adv-x="592"/>
<glyph glyph-name="fi" horiz-adv-x="610" unicode="fi" d="M484 728q27 0 45.5 -18.5t18.5 -45.5q0 -28 -18.5 -46t-45.5 -18q-28 0 -46 18t-18 46q0 27 18 45.5t46 18.5zM532 502v-502h-98v502h98zM281 760q52 0 88 -21l-28 -82q-21 16 -56 16q-36 0 -57.5 -25.5t-21.5 -67.5v-78h131v-84h-131v-418h-98v418h-90v84h90v75 q0 80 47.5 131.5t125.5 51.5z"/>
<glyph glyph-name="f_j" horiz-adv-x="610" unicode="fj" d="M484 728q27 0 45.5 -18.5t18.5 -45.5q0 -28 -18.5 -46t-45.5 -18q-28 0 -46 18t-18 46q0 27 18 45.5t46 18.5zM532 502v-559q0 -79 -52 -131t-133 -52q-92 0 -152 62l64 66q37 -41 86 -41q40 0 64.5 24.5t24.5 64.5v566h98zM281 760q52 0 88 -21l-28 -82q-21 16 -56 16 q-36 0 -57.5 -25.5t-21.5 -67.5v-78h131v-84h-131v-418h-98v418h-90v84h90v75q0 80 47.5 131.5t125.5 51.5z"/>
<glyph glyph-name=".notdef" d="M112 590v-489l154 245zM295 300l-160 -250h318zM480 595l-158 -249l158 -250v499zM458 650h-326l163 -259zM63 699h466v-699h-466v699z" horiz-adv-x="592"/>
<glyph glyph-name=".null" horiz-adv-x="0"/>
<glyph glyph-name="nonmarkingreturn" horiz-adv-x="333"/>
<glyph glyph-name="space" horiz-adv-x="236" unicode=" "/>
<glyph glyph-name="exclam" horiz-adv-x="262" unicode="!" d="M131 115q28 0 46.5 -18.5t18.5 -45.5q0 -28 -18.5 -46t-46.5 -18q-27 0 -45 18t-18 46q0 27 18 45.5t45 18.5zM180 735v-530h-98v530h98z"/>
<glyph glyph-name="quotedbl" horiz-adv-x="317" unicode='&quot;' d="M208 750l92 -17l-44 -263h-39zM50 750l92 -17l-44 -263h-39z"/>
<glyph glyph-name="numbersign" horiz-adv-x="707" unicode="#" d="M446 454h-169l-31 -179h168zM593 735l-36 -201h132v-80h-146l-32 -179h131v-81h-144l-34 -194h-98l34 194h-168l-34 -194h-99l35 194h-133v81h147l32 179h-132v80h145l36 201h97l-35 -201h168l36 201h98z"/>
<glyph glyph-name="dollar" horiz-adv-x="581" unicode="$" d="M340 869v-124q107 -14 184 -75l-54 -84q-82 68 -186 68q-63 0 -100.5 -29t-37.5 -86q0 -48 35.5 -72t130.5 -44q133 -29 189 -78.5t56 -134.5q0 -90 -58.5 -149.5t-158.5 -70.5v-119h-83v118q-137 10 -231 92l57 85q39 -39 97 -62t118 -23q71 0 114 31.5t43 89.5 q0 48 -39 75t-133 47q-132 29 -185.5 78t-53.5 133q0 90 57.5 147t155.5 65v122h83z"/>
<glyph glyph-name="percent" horiz-adv-x="872" unicode="%" d="M665 284q-45 0 -74 -32t-29 -81q0 -48 29 -79.5t74 -31.5q44 0 73.5 31.5t29.5 79.5q0 49 -29.5 81t-73.5 32zM665 356q77 0 128 -52.5t51 -132.5t-50.5 -131.5t-128.5 -51.5t-128.5 51.5t-50.5 131.5t50.5 132.5t128.5 52.5zM208 675q-45 0 -74 -32t-29 -81 q0 -48 29 -79.5t74 -31.5q44 0 73 31.5t29 79.5q0 49 -29 81t-73 32zM208 748q77 0 127.5 -53t50.5 -133q0 -79 -50.5 -131t-127.5 -52q-78 0 -128.5 51.5t-50.5 131.5t50.5 133t128.5 53zM724 735l-479 -735h-97l479 735h97z"/>
<glyph glyph-name="ampersand" horiz-adv-x="686" unicode="&amp;" d="M207 583q0 -53 61 -119q57 35 79.5 60t22.5 61q0 38 -22 59.5t-59 21.5t-59.5 -22t-22.5 -61zM272 328q-5 5 -15 16.5t-11 12.5q-63 -43 -90 -75.5t-27 -82.5q0 -56 37.5 -89t94.5 -33q80 0 158 85zM288 748q79 0 127 -44t48 -115q0 -32 -10 -57.5t-33 -48.5t-42 -37.5 t-55 -37.5l16 -18l140 -156l91 111h116l-145 -180l149 -165h-127l-83 93q-101 -103 -224 -103q-96 0 -161.5 55t-65.5 148q0 72 37.5 119t125.5 103q-78 92 -78 172q0 72 47.5 116.5t126.5 44.5z"/>
<glyph glyph-name="quotesingle" horiz-adv-x="159" unicode="&apos;" d="M50 750l92 -17l-44 -263h-39z"/>
<glyph glyph-name="parenleft" horiz-adv-x="291" unicode="(" d="M197 697l74 -54q-59 -72 -95 -154.5t-36 -199.5t36 -199.5t95 -154.5l-74 -54q-150 180 -150 408q0 226 150 408z"/>
<glyph glyph-name="parenright" horiz-adv-x="291" unicode=")" d="M94 697q150 -180 150 -408q0 -231 -150 -408l-74 54q60 71 95.5 154t35.5 200t-35.5 200t-95.5 154z"/>
<glyph glyph-name="asterisk" horiz-adv-x="412" unicode="*" d="M242 734l-4 -133l125 45l23 -67l-128 -38l81 -105l-58 -41l-74 105l-75 -105l-57 41l81 105l-129 38l22 67l126 -45l-4 133h71z"/>
<glyph glyph-name="plus" horiz-adv-x="486" unicode="+" d="M287 553v-158h159v-90h-159v-159h-90v159h-158v90h158v158h90z"/>
<glyph glyph-name="comma" horiz-adv-x="185" unicode="," d="M75 127q30 0 49.5 -20t19.5 -50q0 -21 -12 -40l-78 -159h-4v264q13 5 25 5z"/>
<glyph glyph-name="hyphen" horiz-adv-x="437" unicode="-" d="M396 304v-91h-356v91h356z"/>
<glyph glyph-name="period" horiz-adv-x="214" unicode="." d="M107 128q30 0 49.5 -19t19.5 -50q0 -30 -19.5 -49.5t-49.5 -19.5t-49.5 19.5t-19.5 49.5t19.5 49.5t49.5 19.5z"/>
<glyph glyph-name="slash" horiz-adv-x="474" unicode="/" d="M469 734l-363 -734h-101l365 734h99z"/>
<glyph glyph-name="zero" horiz-adv-x="589" unicode="0" d="M295 659q-78 0 -117.5 -77.5t-39.5 -213.5q0 -137 39.5 -214.5t117.5 -77.5q77 0 116.5 78t39.5 214t-39.5 213.5t-116.5 77.5zM295 748q122 0 189.5 -102t67.5 -278q0 -177 -67.5 -279t-189.5 -102t-190 102t-68 279q0 176 68 278t190 102z"/>
<glyph glyph-name="one" horiz-adv-x="374" unicode="1" d="M294 748v-748h-99v565l-131 -77l-44 87l270 173h4z"/>
<glyph glyph-name="two" horiz-adv-x="530" unicode="2" d="M264 748q100 0 162 -61t62 -158q0 -66 -21 -117.5t-67 -110.5l-164 -211h261v-90h-451v6l272 348q40 50 55 88.5t15 88.5q0 59 -34.5 93t-89.5 34q-107 0 -131 -123l-90 21q38 192 221 192z"/>
<glyph glyph-name="three" horiz-adv-x="524" unicode="3" d="M264 748q96 0 156 -58.5t60 -150.5q0 -111 -99 -156q57 -22 89.5 -66.5t32.5 -106.5q0 -100 -63 -161.5t-168 -61.5q-181 0 -238 182l90 24q18 -57 53 -86.5t95 -29.5q59 0 95.5 36.5t36.5 96.5q0 56 -40 92.5t-103 36.5h-80v87h82q49 0 83.5 30t34.5 84t-33 86t-85 32 q-97 0 -130 -105l-87 37q56 158 218 158z"/>
<glyph glyph-name="four" horiz-adv-x="557" unicode="4" d="M339 457l-163 -230h163v230zM437 741v-513h99v-90h-99v-138h-99v138h-331v4l425 599h5z"/>
<glyph glyph-name="five" horiz-adv-x="538" unicode="5" d="M463 735v-90h-285v-212q44 22 97 22q104 0 169 -63.5t65 -172.5q0 -100 -63.5 -166t-169.5 -66q-175 0 -235 159l85 40q35 -109 144 -109q61 0 100 41.5t39 104.5q0 64 -38 103t-100 39q-74 0 -130 -45l-63 30v385h385z"/>
<glyph glyph-name="six" horiz-adv-x="547" unicode="6" d="M272 382q-59 0 -99 -43.5t-40 -110.5t40 -109.5t99 -42.5q60 0 101 42.5t41 109.5t-41 110.5t-101 43.5zM272 471q101 0 171.5 -69.5t70.5 -173.5t-70.5 -172.5t-171.5 -68.5q-100 0 -170 68.5t-70 172.5q0 89 52 154l231 353h112l-173 -265q6 1 18 1z"/>
<glyph glyph-name="seven" horiz-adv-x="538" unicode="7" d="M524 735v-6l-370 -729h-108l331 644h-350v91h497z"/>
<glyph glyph-name="eight" horiz-adv-x="547" unicode="8" d="M270 660q-49 0 -83 -33t-34 -81q0 -51 34 -85t83 -34t83 34t34 85q0 48 -34 81t-83 33zM270 339q-59 0 -99.5 -38t-40.5 -95q0 -56 40.5 -93.5t99.5 -37.5t100 37.5t41 93.5q0 57 -41 95t-100 38zM270 748q88 0 149 -56t61 -142q0 -52 -24.5 -94t-66.5 -66 q56 -26 89.5 -74.5t33.5 -107.5q0 -95 -70.5 -158t-171.5 -63t-171 63t-70 158q0 60 33 108.5t88 72.5q-41 24 -65.5 66t-24.5 95q0 86 61 142t149 56z"/>
<glyph glyph-name="nine" horiz-adv-x="547" unicode="9" d="M274 659q-60 0 -100.5 -42.5t-40.5 -109.5t40.5 -110.5t100.5 -43.5q59 0 99.5 43.5t40.5 110.5t-40.5 109.5t-99.5 42.5zM274 748q100 0 170 -68.5t70 -172.5q0 -82 -44 -143l-238 -364h-113l173 264h-18q-101 0 -171.5 69.5t-70.5 173.5t70.5 172.5t171.5 68.5z"/>
<glyph glyph-name="colon" horiz-adv-x="207" unicode=":" d="M104 512q28 0 47 -19t19 -47t-19 -47t-47 -19t-47 19t-19 47t19 47t47 19zM104 122q29 0 47.5 -18.5t18.5 -47.5q0 -28 -19 -47t-47 -19t-47 19t-19 47t19 47t47 19z"/>
<glyph glyph-name="semicolon" horiz-adv-x="207" unicode=";" d="M104 512q28 0 47 -19t19 -47t-19 -47t-47 -19t-47 19t-19 47t19 47t47 19zM82 122q30 0 49.5 -19.5t19.5 -49.5q0 -20 -12 -41l-78 -159h-4v265q11 4 25 4z"/>
<glyph glyph-name="less" horiz-adv-x="354" unicode="&lt;" d="M334 538l-193 -192l193 -192h-124l-190 190v4l190 190h124z"/>
<glyph glyph-name="equal" horiz-adv-x="486" unicode="=" d="M446 514v-91h-407v91h407zM446 275v-90h-407v90h407z"/>
<glyph glyph-name="greater" horiz-adv-x="354" unicode="&gt;" d="M144 538l190 -190v-4l-190 -190h-124l192 192l-192 192h124z"/>
<glyph glyph-name="question" horiz-adv-x="491" unicode="?" d="M239 115q28 0 46 -18.5t18 -45.5q0 -28 -18 -46t-46 -18t-46 18t-18 46q0 27 18 45.5t46 18.5zM238 748q95 0 155.5 -57t60.5 -144q0 -48 -17 -84.5t-41.5 -59t-49 -43t-41.5 -47t-17 -59.5v-49h-99v61q0 41 16.5 73.5t40.5 54t48 42t40.5 48.5t16.5 62q0 52 -32 82 t-82 30q-100 0 -120 -104l-97 17q38 177 218 177z"/>
<glyph glyph-name="at" horiz-adv-x="859" unicode="@" d="M427 385q-55 0 -90 -40t-35 -105t35 -104.5t90 -39.5q70 0 115 65v159q-47 65 -115 65zM429 637q177 0 288 -108.5t111 -281.5q0 -102 -45.5 -163t-125.5 -61q-77 0 -102 60l-2 5q-52 -65 -145 -65q-84 0 -137 61.5t-53 155.5q0 95 53 156.5t137 61.5q93 0 138 -57l3 49 h76v-310q0 -44 41 -44q39 0 61 41.5t22 109.5q0 138 -88.5 226.5t-231.5 88.5q-140 0 -229.5 -90.5t-89.5 -229.5q0 -140 88 -229.5t226 -89.5q69 0 129 24l23 -71q-70 -28 -152 -28q-173 0 -283 110.5t-110 283.5q0 172 111.5 283.5t286.5 111.5z"/>
<glyph glyph-name="A" horiz-adv-x="698" unicode="A" d="M351 748l338 -748h-109l-66 150h-330l-66 -150h-109l338 748h4zM349 523l-127 -284h254z"/>
<glyph glyph-name="B" horiz-adv-x="663" unicode="B" d="M330 642h-147v-222h156q60 0 95 31t35 80q0 53 -35.5 82t-103.5 29zM369 329h-186v-236h197q70 0 109.5 30.5t39.5 87.5q0 118 -160 118zM342 735q111 0 170 -51.5t59 -142.5q0 -56 -25.5 -95t-61.5 -57q148 -39 148 -183q0 -96 -66.5 -151t-174.5 -55h-309v735h260z"/>
<glyph glyph-name="C" horiz-adv-x="680" unicode="C" d="M403 748q155 0 260 -107l-65 -74q-80 87 -195 87q-118 0 -192.5 -81t-74.5 -206t74.5 -205.5t192.5 -80.5q120 0 200 92l64 -76q-101 -110 -264 -110q-161 0 -265.5 108t-104.5 272q0 165 104.5 273t265.5 108z"/>
<glyph glyph-name="D" horiz-adv-x="732" unicode="D" d="M301 640h-117v-546h117q142 0 218.5 71.5t76.5 202.5q0 129 -77 200.5t-218 71.5zM304 735q186 0 290.5 -96.5t104.5 -270.5t-104 -271t-291 -97h-222v735h222z"/>
<glyph glyph-name="E" horiz-adv-x="577" unicode="E" d="M537 735v-94h-353v-223h310v-91h-310v-233h361v-94h-463v735h455z"/>
<glyph glyph-name="F" horiz-adv-x="539" unicode="F" d="M522 735v-94h-338v-233h286v-92h-286v-316h-102v735h440z"/>
<glyph glyph-name="G" horiz-adv-x="740" unicode="G" d="M403 748q155 0 260 -107l-65 -74q-80 87 -195 87q-118 0 -192.5 -81t-74.5 -206t77 -205.5t200 -80.5q95 0 166 52v165h-187v89h289v-304q-104 -96 -268 -96q-166 0 -273 108t-107 272q0 165 104.5 273t265.5 108z"/>
<glyph glyph-name="H" horiz-adv-x="733" unicode="H" d="M651 735v-735h-102v329h-365v-329h-102v735h102v-312h365v312h102z"/>
<glyph glyph-name="I" horiz-adv-x="266" unicode="I" d="M184 735v-735h-102v735h102z"/>
<glyph glyph-name="J" horiz-adv-x="540" unicode="J" d="M469 735v-525q0 -101 -61.5 -162t-161.5 -61q-95 0 -160.5 63.5t-65.5 175.5h100q0 -68 33 -106.5t90 -38.5q58 0 91 35.5t33 98.5v520h102z"/>
<glyph glyph-name="K" horiz-adv-x="667" unicode="K" d="M605 735l-211 -354l264 -381h-123l-199 289l-175 -289h-79v735h102v-529l301 529h120z"/>
<glyph glyph-name="L" horiz-adv-x="544" unicode="L" d="M184 735v-644h350v-91h-452v735h102z"/>
<glyph glyph-name="M" horiz-adv-x="873" unicode="M" d="M790 748v-748h-102v405l-248 -411h-7l-249 411v-405h-102v748h4l350 -571l350 571h4z"/>
<glyph glyph-name="N" horiz-adv-x="729" unicode="N" d="M647 735v-748h-4l-459 507v-494h-102v748h4l459 -506v493h102z"/>
<glyph glyph-name="O" horiz-adv-x="806" unicode="O" d="M403 654q-117 0 -192 -81t-75 -206t75 -205.5t192 -80.5t192 80.5t75 205.5t-75 206t-192 81zM403 748q160 0 265.5 -108.5t105.5 -272.5q0 -165 -105.5 -272.5t-265.5 -107.5q-161 0 -265.5 107.5t-104.5 272.5q0 164 105 272.5t265 108.5z"/>
<glyph glyph-name="P" horiz-adv-x="618" unicode="P" d="M328 645h-144v-285h144q75 0 118 36.5t43 105.5t-43.5 106t-117.5 37zM337 735q113 0 184.5 -61.5t71.5 -171.5q0 -109 -71.5 -170.5t-184.5 -61.5h-153v-270h-102v735h255z"/>
<glyph glyph-name="Q" horiz-adv-x="806" unicode="Q" d="M403 654q-117 0 -192 -81t-75 -206t75 -205.5t192 -80.5q58 0 110 22l-113 132l72 62l119 -139q79 81 79 209q0 125 -75 206t-192 81zM403 748q160 0 265.5 -108.5t105.5 -272.5q0 -177 -118 -285l151 -174h-125l-104 120q-80 -41 -175 -41q-161 0 -265.5 107.5 t-104.5 272.5q0 164 105 272.5t265 108.5z"/>
<glyph glyph-name="R" horiz-adv-x="632" unicode="R" d="M315 645h-133v-276h133q77 0 121 35.5t44 102.5q0 66 -44.5 102t-120.5 36zM324 735q113 0 186 -60.5t73 -167.5q0 -78 -40 -132t-109 -79l184 -296h-120l-172 279h-144v-279h-102v735h244z"/>
<glyph glyph-name="S" horiz-adv-x="585" unicode="S" d="M285 748q141 0 239 -78l-54 -84q-82 68 -186 68q-63 0 -100.5 -29t-37.5 -86q0 -48 35.5 -72t130.5 -44q133 -29 189 -78.5t56 -134.5q0 -100 -71 -161.5t-191 -61.5q-161 0 -269 94l57 85q39 -39 97 -62t118 -23q71 0 114 31.5t43 89.5q0 48 -39 75t-133 47 q-132 29 -185.5 78t-53.5 133q0 97 66 155t175 58z"/>
<glyph glyph-name="T" horiz-adv-x="649" unicode="T" d="M633 735v-91h-258v-644h-102v644h-257v91h617z"/>
<glyph glyph-name="U" horiz-adv-x="689" unicode="U" d="M616 735v-476q0 -126 -70 -199t-201 -73q-132 0 -202 73t-70 199v476h102v-470q0 -85 43.5 -134.5t126.5 -49.5q82 0 125.5 49.5t43.5 134.5v470h102z"/>
<glyph glyph-name="V" horiz-adv-x="715" unicode="V" d="M705 735l-345 -747h-4l-346 747h111l237 -522l237 522h110z"/>
<glyph glyph-name="W" horiz-adv-x="978" unicode="W" d="M968 735l-288 -747h-4l-187 479l-187 -479h-4l-288 747h113l177 -478l187 478h4l187 -478l177 478h113z"/>
<glyph glyph-name="X" horiz-adv-x="670" unicode="X" d="M646 735l-240 -361l250 -374h-118l-203 298l-203 -298h-118l250 374l-240 361h119l192 -285l192 285h119z"/>
<glyph glyph-name="Y" horiz-adv-x="660" unicode="Y" d="M653 734l-272 -423v-311h-102v309l-272 425h119l204 -322l203 322h120z"/>
<glyph glyph-name="Z" horiz-adv-x="580" unicode="Z" d="M542 735v-4l-355 -638h366v-93h-528v4l358 638h-342v93h501z"/>
<glyph glyph-name="bracketleft" horiz-adv-x="308" unicode="[" d="M283 699v-80h-134v-660h134v-80h-228v820h228z"/>
<glyph glyph-name="backslash" horiz-adv-x="474" unicode="\" d="M105 734l364 -734h-100l-364 734h100z"/>
<glyph glyph-name="bracketright" horiz-adv-x="314" unicode="]" d="M259 699v-820h-234v80h139v660h-139v80h234z"/>
<glyph glyph-name="asciicircum" horiz-adv-x="533" unicode="^" d="M266 760l247 -298h-90l-157 189l-155 -189h-91z"/>
<glyph glyph-name="underscore" horiz-adv-x="800" unicode="_" d="M760 0v-90h-720v90h720z"/>
<glyph glyph-name="grave" horiz-adv-x="295" unicode="`" d="M142 707l138 -131h-99l-155 131h116z"/>
<glyph glyph-name="a" horiz-adv-x="593" unicode="a" d="M280 425q-66 0 -108.5 -48t-42.5 -126t42.5 -126t108.5 -48q86 0 138 85v178q-52 85 -138 85zM262 512q107 0 161 -71l4 61h89v-502h-89l-4 61q-54 -71 -161 -71q-103 0 -167.5 73.5t-64.5 187.5t64.5 187.5t167.5 73.5z"/>
<glyph glyph-name="b" horiz-adv-x="593" unicode="b" d="M313 425q-86 0 -138 -85v-178q52 -85 138 -85q66 0 108.5 48t42.5 126t-42.5 126t-108.5 48zM175 760v-312q55 64 156 64q103 0 167.5 -73.5t64.5 -187.5t-64.5 -187.5t-167.5 -73.5q-107 0 -161 71l-4 -61h-89v760h98z"/>
<glyph glyph-name="c" horiz-adv-x="506" unicode="c" d="M283 512q130 0 201 -108l-73 -56q-48 78 -127 78q-74 0 -114.5 -48.5t-40.5 -126.5q0 -77 41 -126t115 -49q81 0 129 78l73 -56q-71 -108 -202 -108q-116 0 -185.5 73t-69.5 188t69 188t184 73z"/>
<glyph glyph-name="d" horiz-adv-x="593" unicode="d" d="M280 425q-66 0 -108.5 -48t-42.5 -126t42.5 -126t108.5 -48q86 0 138 85v178q-52 85 -138 85zM516 760v-760h-89l-4 61q-54 -71 -161 -71q-103 0 -167.5 73.5t-64.5 187.5t64.5 187.5t167.5 73.5q101 0 156 -64v312h98z"/>
<glyph glyph-name="e" horiz-adv-x="530" unicode="e" d="M270 428q-61 0 -99 -36t-42 -96h271q-2 60 -36 96t-94 36zM270 512q108 0 167.5 -73t59.5 -184v-39h-368q2 -69 41.5 -105.5t110.5 -36.5q90 0 136 64l68 -57q-74 -91 -204 -91q-115 0 -183 72.5t-68 187.5q0 114 67.5 188t172.5 74z"/>
<glyph glyph-name="f" horiz-adv-x="358" unicode="f" d="M281 760q67 0 110 -35l-38 -78q-26 26 -67 26q-37 0 -58.5 -25.5t-21.5 -67.5v-78h131v-84h-131v-418h-98v418h-90v84h90v73q0 82 47 133.5t126 51.5z"/>
<glyph glyph-name="g" horiz-adv-x="594" unicode="g" d="M280 425q-66 0 -108.5 -48t-42.5 -126t42.5 -126t108.5 -48q86 0 138 85v178q-52 85 -138 85zM262 512q107 0 161 -71l4 61h89v-489q0 -117 -70 -185t-187 -68q-143 0 -231 105l65 64q68 -82 165 -82q73 0 116.5 44.5t43.5 119.5v43q-55 -64 -156 -64q-103 0 -167.5 73.5 t-64.5 187.5t64.5 187.5t167.5 73.5z"/>
<glyph glyph-name="h" horiz-adv-x="583" unicode="h" d="M175 760v-313q60 65 154 65q89 0 139.5 -58.5t50.5 -156.5v-297h-98v291q0 57 -31.5 92.5t-84.5 35.5q-74 0 -130 -80v-339h-98v760h98z"/>
<glyph glyph-name="i" horiz-adv-x="253" unicode="i" d="M127 728q27 0 45.5 -18.5t18.5 -45.5q0 -28 -18.5 -46t-45.5 -18q-28 0 -46 18t-18 46q0 27 18 45.5t46 18.5zM175 502v-502h-98v502h98z"/>
<glyph glyph-name="j" horiz-adv-x="253" unicode="j" d="M127 728q27 0 45.5 -18.5t18.5 -45.5q0 -28 -18.5 -46t-45.5 -18q-28 0 -46 18t-18 46q0 27 18 45.5t46 18.5zM175 502v-559q0 -79 -52 -131t-133 -52q-92 0 -152 62l64 66q37 -41 86 -41q40 0 64.5 24.5t24.5 64.5v566h98z"/>
<glyph glyph-name="k" horiz-adv-x="541" unicode="k" d="M175 760v-580l217 322h117l-154 -220l179 -282h-115l-126 201l-137 -201h-79v760h98z"/>
<glyph glyph-name="l" horiz-adv-x="253" unicode="l" d="M175 760v-760h-98v760h98z"/>
<glyph glyph-name="m" horiz-adv-x="908" unicode="m" d="M662 512q85 0 133.5 -58.5t48.5 -156.5v-297h-99v291q0 57 -29.5 92.5t-79.5 35.5q-71 0 -129 -83q2 -22 2 -31v-305h-98v291q0 57 -29.5 92.5t-79.5 35.5q-68 0 -127 -79v-340h-98v502h89l4 -61q56 71 157 71q109 0 155 -92q66 92 180 92z"/>
<glyph glyph-name="n" horiz-adv-x="583" unicode="n" d="M329 512q89 0 139.5 -58.5t50.5 -156.5v-297h-98v291q0 57 -31.5 92.5t-84.5 35.5q-74 0 -130 -80v-339h-98v502h89l4 -61q56 71 159 71z"/>
<glyph glyph-name="o" d="M287 425q-69 0 -113.5 -49.5t-44.5 -125.5q0 -75 44.5 -124t113.5 -49t114 49t45 124q0 76 -45 125.5t-114 49.5zM287 512q112 0 185 -74.5t73 -187.5t-73 -186.5t-185 -73.5t-184.5 73.5t-72.5 186.5t72.5 187.5t184.5 74.5z" unicode="o"/>
<glyph glyph-name="p" horiz-adv-x="593" unicode="p" d="M313 425q-86 0 -138 -85v-178q52 -85 138 -85q66 0 108.5 48t42.5 126t-42.5 126t-108.5 48zM331 512q103 0 167.5 -73.5t64.5 -187.5t-64.5 -187.5t-167.5 -73.5q-101 0 -156 64v-284h-98v732h89l4 -61q54 71 161 71z"/>
<glyph glyph-name="q" horiz-adv-x="593" unicode="q" d="M280 425q-66 0 -108.5 -48t-42.5 -126t42.5 -126t108.5 -48q86 0 138 85v178q-52 85 -138 85zM262 512q107 0 161 -71l4 61h89v-732h-98v284q-55 -64 -156 -64q-103 0 -167.5 73.5t-64.5 187.5t64.5 187.5t167.5 73.5z"/>
<glyph glyph-name="r" horiz-adv-x="334" unicode="r" d="M320 512v-98h-9q-78 0 -136 -84v-330h-98v502h89l5 -68q49 78 149 78z"/>
<glyph glyph-name="s" horiz-adv-x="457" unicode="s" d="M239 512q100 0 167 -55l-42 -76q-57 44 -125 44q-92 0 -92 -58q0 -29 21.5 -41.5t83.5 -27.5q88 -21 129 -58t41 -94q0 -71 -54.5 -113.5t-146.5 -42.5q-117 0 -191 61l45 78q60 -52 147 -52q101 0 101 63q0 30 -23.5 45t-83.5 29q-89 20 -128 54t-39 93q0 71 51 111 t139 40z"/>
<glyph glyph-name="t" horiz-adv-x="398" unicode="t" d="M208 672v-170h158v-84h-158v-249q0 -43 23.5 -66.5t62.5 -23.5q45 0 72 16l28 -77q-45 -28 -108 -28q-82 0 -129 46t-47 132v250h-98v84h98v170h98z"/>
<glyph glyph-name="u" d="M498 502v-502h-89l-4 61q-56 -71 -161 -71q-85 0 -132 57.5t-47 155.5v299h98v-294q0 -56 28.5 -90.5t77.5 -34.5q43 0 73.5 21t57.5 59v339h98z" unicode="u"/>
<glyph glyph-name="v" horiz-adv-x="542" unicode="v" d="M531 502l-258 -512h-4l-259 512h110l151 -306l151 306h109z"/>
<glyph glyph-name="w" horiz-adv-x="764" unicode="w" d="M753 502l-223 -512h-4l-144 298l-145 -298h-4l-223 512h110l122 -291l138 291h4l138 -291l122 291h109z"/>
<glyph glyph-name="x" horiz-adv-x="500" unicode="x" d="M479 502l-164 -247l171 -255h-116l-122 183l-121 -183h-116l171 255l-164 247h115l115 -177l116 177h115z"/>
<glyph glyph-name="y" horiz-adv-x="552" unicode="y" d="M537 502l-367 -732h-112l165 312l-207 420h109l151 -310l151 310h110z"/>
<glyph glyph-name="z" horiz-adv-x="453" unicode="z" d="M429 502v-4l-250 -414h249v-84h-405v4l249 414h-234v84h391z"/>
<glyph glyph-name="braceleft" horiz-adv-x="335" unicode="{" d="M310 699v-80q-57 0 -84 -29t-27 -71q0 -16 3 -35l9 -65q6 -22 6 -40q0 -24 -13.5 -50t-49.5 -40q36 -14 49.5 -40t13.5 -50q0 -18 -6 -40l-9 -65q-3 -19 -3 -35q0 -42 27 -71t84 -29v-80q-114 0 -162 51t-48 113q0 32 10 69l9 63q3 13 3 24q0 28 -22.5 52.5t-73.5 35.5v4 q51 11 73.5 35.5t22.5 52.5q0 12 -3 24l-9 63q-10 37 -10 69q0 63 48 113.5t162 50.5z"/>
<glyph glyph-name="bar" horiz-adv-x="236" unicode="|" d="M165 699v-820h-94v820h94z"/>
<glyph glyph-name="braceright" horiz-adv-x="335" unicode="}" d="M25 699q114 0 162.5 -51t48.5 -114q0 -31 -10 -68l-10 -63q-3 -13 -3 -24q0 -28 22.5 -52.5t73.5 -35.5v-4q-51 -11 -73.5 -35.5t-22.5 -52.5q0 -12 3 -24l10 -63q10 -37 10 -68q0 -63 -48.5 -114t-162.5 -51v80q57 0 84 29t27 71q0 16 -3 35l-9 65q-6 22 -6 40 q0 24 13.5 50t49.5 40q-36 14 -49.5 40t-13.5 50q0 18 6 40l9 65q3 19 3 35q0 42 -27 71t-84 29v80z"/>
<glyph glyph-name="asciitilde" horiz-adv-x="588" unicode="~" d="M190 441q35 0 65.5 -13.5t49 -30t43.5 -30t50 -13.5q74 0 105 79l59 -45q-23 -58 -65.5 -91.5t-98.5 -33.5q-36 0 -66 13.5t-47 30t-42 30t-53 13.5q-75 0 -105 -79l-59 45q23 58 65.5 91.5t98.5 33.5z"/>
<glyph glyph-name="exclamdown" horiz-adv-x="262" unicode="¡" d="M132 383q-28 0 -46.5 18.5t-18.5 45.5q0 28 18.5 46t46.5 18q27 0 45 -18t18 -46q0 -27 -18 -45.5t-45 -18.5zM83 -237v530h98v-530h-98z"/>
<glyph glyph-name="cent" horiz-adv-x="509" unicode="¢" d="M325 639v-130q100 -16 159 -105l-73 -56q-48 78 -127 78q-74 0 -114.5 -48.5t-40.5 -126.5q0 -77 41 -126t115 -49q81 0 129 78l73 -56q-59 -90 -162 -105v-139h-83v139q-98 13 -155 83.5t-57 174.5t57 174.5t155 83.5v130h83z"/>
<glyph glyph-name="sterling" horiz-adv-x="580" unicode="£" d="M290 748q79 0 132.5 -43.5t73.5 -105.5l-95 -28q-12 41 -41 65t-73 24q-58 0 -88 -37.5t-30 -101.5q0 -40 18 -112h179v-79h-160q8 -38 8 -65q0 -88 -51 -177h179q54 0 79.5 25.5t25.5 85.5h97q0 -199 -184 -199h-344v4q2 3 15 24.5t16 27t15 27t16 31t13 31t11.5 34.5 t7 34t4.5 38t-1.5 38t-6.5 41h-84v79h65q-16 59 -16 105q0 109 59 171.5t160 62.5z"/>
<glyph glyph-name="currency" horiz-adv-x="652" unicode="¤" d="M326 390q-51 0 -84 -36.5t-33 -90.5t33 -90t84 -36q50 0 83 36t33 90t-33 90.5t-83 36.5zM552 555l63 -63l-121 -120q31 -48 31 -109q0 -63 -31 -109l121 -120l-63 -63l-122 121q-46 -30 -104 -30t-105 30l-121 -121l-63 63l121 120q-32 48 -32 109q0 59 32 109l-121 120 l63 63l121 -121q45 31 105 31q58 0 105 -31z"/>
<glyph glyph-name="yen" horiz-adv-x="658" unicode="¥" d="M652 734l-233 -359h126v-74h-165v-84h165v-74h-165v-143h-102v143h-164v74h164v84h-164v74h124l-232 359h119l204 -322l203 322h120z"/>
<glyph glyph-name="brokenbar" horiz-adv-x="236" unicode="¦" d="M165 187v-308h-94v308h94zM165 699v-308h-94v308h94z"/>
<glyph glyph-name="section" horiz-adv-x="429" unicode="§" d="M230 748q90 0 146 -58l-55 -61q-36 38 -91 38q-43 0 -68.5 -21.5t-25.5 -57.5q0 -58 66 -79q12 -4 36.5 -8.5t36.5 -8.5q56 -17 90.5 -62t34.5 -103q0 -47 -23 -84.5t-63 -56.5q71 -36 71 -113q0 -71 -54 -119t-141 -48q-103 0 -163 70l59 60q41 -49 105 -49q46 0 74 23 t28 62q0 49 -59 72q-9 4 -19.5 6t-23 4t-20.5 4q-63 14 -101 60t-38 109q0 47 23 84t63 56q-74 38 -74 120q0 68 51 114.5t135 46.5zM216 421q-43 0 -69.5 -26.5t-26.5 -67.5t26.5 -67t69.5 -26q42 0 69.5 26t27.5 67t-27.5 67.5t-69.5 26.5z"/>
<glyph glyph-name="dieresis" horiz-adv-x="320" unicode="¨" d="M245 695q23 0 39 -15.5t16 -38.5t-16 -38.5t-39 -15.5t-38.5 15.5t-15.5 38.5t15.5 38.5t38.5 15.5zM74 695q24 0 39.5 -15.5t15.5 -38.5t-15.5 -38.5t-39.5 -15.5q-23 0 -38.5 15.5t-15.5 38.5t15.5 38.5t38.5 15.5z"/>
<glyph glyph-name="copyright" horiz-adv-x="670" unicode="©" d="M335 717q-103 0 -170 -72t-67 -179q0 -108 67 -179.5t170 -71.5t170 71.5t67 179.5q0 107 -67.5 179t-169.5 72zM335 779q130 0 217 -89.5t87 -223.5q0 -135 -86.5 -223.5t-217.5 -88.5q-132 0 -217.5 88t-85.5 224q0 134 86 223.5t217 89.5zM346 642q73 0 120 -50 l-40 -47q-31 34 -80 34q-48 0 -76.5 -30t-28.5 -80q0 -51 28.5 -80.5t76.5 -29.5q51 0 81 35l40 -47q-47 -51 -121 -51t-122.5 48.5t-48.5 124.5q0 74 48.5 123.5t122.5 49.5z"/>
<glyph glyph-name="ordfeminine" horiz-adv-x="430" unicode="ª" d="M204 677q-43 0 -70 -31t-27 -82t27 -82t70 -31q53 0 88 52v123q-35 51 -88 51zM184 748q73 0 113 -48l3 41h73v-353h-73l-3 41q-40 -48 -113 -48q-69 0 -113.5 51.5t-44.5 131.5t44.5 132t113.5 52z"/>
<glyph glyph-name="guillemotleft" horiz-adv-x="489" unicode="«" d="M474 458l-136 -202l136 -202h-92l-138 200v4l138 200h92zM245 458l-135 -202l135 -202h-92l-138 200v4l138 200h92z"/>
<glyph glyph-name="logicalnot" horiz-adv-x="582" unicode="¬" d="M545 434v-278h-70v209h-438v69h508z"/>
<glyph glyph-name="registered" horiz-adv-x="670" unicode="®" d="M334 578h-53v-101h53q62 0 62 51q0 50 -62 50zM215 638h125q52 0 87 -29t35 -80q0 -71 -63 -100l79 -130h-76l-72 118h-49v-118h-66v339zM335 717q-103 0 -170 -72t-67 -179q0 -108 67 -179.5t170 -71.5t170 71.5t67 179.5q0 107 -67.5 179t-169.5 72zM335 779 q130 0 217 -89.5t87 -223.5q0 -135 -86.5 -223.5t-217.5 -88.5q-132 0 -217.5 88t-85.5 224q0 134 86 223.5t217 89.5z"/>
<glyph glyph-name="macron" horiz-adv-x="300" unicode="¯" d="M280 665v-68h-260v68h260z"/>
<glyph glyph-name="degree" horiz-adv-x="343" unicode="°" d="M173 683q-33 0 -54 -21.5t-21 -54.5q0 -32 21 -53.5t54 -21.5q31 0 52 21.5t21 53.5q0 33 -21 54.5t-52 21.5zM173 747q60 0 100 -40t40 -100t-40 -99.5t-100 -39.5q-62 0 -102.5 39t-40.5 100q0 60 40.5 100t102.5 40z"/>
<glyph glyph-name="plusminus" horiz-adv-x="486" unicode="±" d="M446 177v-90h-407v90h407zM287 656v-157h159v-91h-159v-158h-90v158h-158v91h158v157h90z"/>
<glyph glyph-name="two.sups" horiz-adv-x="345" unicode="²" d="M174 821q63 0 101.5 -36.5t38.5 -93.5q0 -58 -53 -124l-89 -107h146v-66h-273v4l154 207q40 48 40 87q0 29 -18 46t-47 17q-58 0 -70 -65l-67 15q23 116 137 116z"/>
<glyph glyph-name="three.sups" horiz-adv-x="340" unicode="³" d="M175 821q59 0 96.5 -35.5t37.5 -89.5q0 -60 -55 -86q67 -27 67 -95q0 -57 -39 -93t-104 -36q-115 0 -145 109l66 16q19 -58 79 -58q31 0 50 18t19 48q0 27 -20.5 45.5t-53.5 18.5h-47v57h49q26 1 43.5 15.5t17.5 41.5q0 26 -18 42t-45 16q-51 0 -68 -53l-64 28 q30 91 134 91z"/>
<glyph glyph-name="acute" horiz-adv-x="295" unicode="´" d="M269 707l-155 -131h-99l138 131h116z"/>
<glyph glyph-name="mu" horiz-adv-x="588" unicode="µ" d="M510 502v-502h-89l-4 61q-56 -71 -151 -71q-57 0 -91 23v-243h-98v732h98v-294q0 -56 28.5 -90.5t77.5 -34.5q43 0 73.5 21t57.5 59v339h98z"/>
<glyph glyph-name="paragraph" horiz-adv-x="701" unicode="¶" d="M665 735v-78h-89v-767h-84v767h-108v-767h-84v416h-3q-119 0 -195.5 53t-76.5 157q0 107 75 163t198 56h367z"/>
<glyph glyph-name="periodcentered" horiz-adv-x="192" unicode="·" d="M96 322q28 0 47 -19t19 -47t-19 -46.5t-47 -18.5t-47 18.5t-19 46.5t19 47t47 19z"/>
<glyph glyph-name="cedilla" horiz-adv-x="245" unicode="¸" d="M92 16l58 -4l-11 -68q42 -4 66 -28.5t24 -65.5q0 -46 -29 -74t-80 -28q-64 0 -99 40l39 45q24 -28 57 -28q44 0 44 42q0 38 -41 42q-6 1 -12 1q-19 0 -36 -8l-3 4z"/>
<glyph glyph-name="one.sups" horiz-adv-x="257" unicode="¹" d="M203 821v-427h-74v308l-71 -45l-32 67l175 97h2z"/>
<glyph glyph-name="ordmasculine" horiz-adv-x="417" unicode="º" d="M209 677q-45 0 -73.5 -32t-28.5 -81t28.5 -81t73.5 -32q44 0 72.5 32t28.5 81t-28.5 81t-72.5 32zM209 748q78 0 130 -52.5t52 -131.5t-52 -131t-130 -52q-80 0 -131.5 51.5t-51.5 131.5q0 79 51.5 131.5t131.5 52.5z"/>
<glyph glyph-name="guillemotright" horiz-adv-x="489" unicode="»" d="M336 458l138 -200v-4l-138 -200h-92l135 202l-135 202h92zM107 458l138 -200v-4l-138 -200h-92l136 202l-136 202h92z"/>
<glyph glyph-name="onequarter" horiz-adv-x="731" unicode="¼" d="M589 245l-94 -122h94v122zM660 428v-304h55v-60h-55v-64h-72v65h-216v2l286 361h2zM203 721v-427h-74v308l-71 -45l-32 67l175 97h2zM583 734l-364 -734h-91l364 734h91z"/>
<glyph glyph-name="onehalf" horiz-adv-x="791" unicode="½" d="M620 427q63 0 101.5 -36.5t38.5 -93.5q0 -58 -53 -124l-89 -107h146v-66h-273v4l154 207q40 48 40 87q0 29 -18 46t-47 17q-58 0 -70 -65l-67 15q23 116 137 116zM203 721v-427h-74v308l-71 -45l-32 67l175 97h2zM583 734l-364 -734h-91l364 734h91z"/>
<glyph glyph-name="threequarters" horiz-adv-x="815" unicode="¾" d="M175 721q59 0 96.5 -35.5t37.5 -89.5q0 -60 -55 -86q67 -27 67 -95q0 -57 -39 -93t-104 -36q-115 0 -145 109l66 16q19 -58 79 -58q31 0 50 18t19 48q0 27 -20.5 45.5t-53.5 18.5h-47v57h49q26 1 43.5 15.5t17.5 41.5q0 26 -18 42t-45 16q-51 0 -68 -53l-64 28 q30 91 134 91zM672 245l-94 -122h94v122zM743 428v-304h55v-60h-55v-64h-72v65h-216v2l286 361h2zM666 734l-364 -734h-91l364 734h91z"/>
<glyph glyph-name="questiondown" horiz-adv-x="491" unicode="¿" d="M252 383q-28 0 -46 18.5t-18 45.5q0 28 18 46t46 18t46 -18t18 -46q0 -27 -18 -45.5t-46 -18.5zM253 -250q-95 0 -155.5 57t-60.5 144q0 48 17 84.5t41.5 59t49 43t41.5 47t17 59.5v49h99v-61q0 -41 -16.5 -73.5t-40.5 -54t-48 -42t-40.5 -48.5t-16.5 -62q0 -52 32 -82 t82 -30q100 0 120 104l97 -17q-38 -177 -218 -177z"/>
<glyph glyph-name="Agrave" horiz-adv-x="698" unicode="À" d="M270 887l133 -115h-108l-146 115h121zM351 748l338 -748h-109l-66 150h-330l-66 -150h-109l338 748h4zM349 523l-127 -284h254z"/>
<glyph glyph-name="Aacute" horiz-adv-x="698" unicode="Á" d="M538 887l-146 -115h-108l133 115h121zM351 748l338 -748h-109l-66 150h-330l-66 -150h-109l338 748h4zM349 523l-127 -284h254z"/>
<glyph glyph-name="Acircumflex" horiz-adv-x="698" unicode="Â" d="M348 916l159 -145h-91l-68 61l-68 -61h-91zM351 748l338 -748h-109l-66 150h-330l-66 -150h-109l338 748h4zM349 523l-127 -284h254z"/>
<glyph glyph-name="Atilde" horiz-adv-x="698" unicode="Ã" d="M287 915q29 0 49.5 -12t29.5 -27t22 -27t28 -12q32 0 32 72h64q0 -68 -28.5 -103.5t-73.5 -35.5q-29 0 -49 12t-28 27t-20.5 27t-28.5 12q-34 0 -34 -72h-65q0 70 28.5 104.5t73.5 34.5zM351 748l338 -748h-109l-66 150h-330l-66 -150h-109l338 748h4zM349 523l-127 -284 h254z"/>
<glyph glyph-name="Adieresis" horiz-adv-x="698" unicode="Ä" d="M434 883q23 0 39 -15.5t16 -38.5t-16 -38.5t-39 -15.5t-38.5 15.5t-15.5 38.5t15.5 38.5t38.5 15.5zM263 883q24 0 39.5 -15.5t15.5 -38.5t-15.5 -38.5t-39.5 -15.5q-23 0 -38.5 15.5t-15.5 38.5t15.5 38.5t38.5 15.5zM351 748l338 -748h-109l-66 150h-330l-66 -150h-109 l338 748h4zM349 523l-127 -284h254z"/>
<glyph glyph-name="Aring" horiz-adv-x="698" unicode="Å" d="M349 931q-22 0 -37 -15.5t-15 -37.5q0 -23 15 -37.5t37 -14.5t37 14.5t15 37.5q0 22 -15 37.5t-37 15.5zM349 986q47 0 78 -31t31 -77q0 -47 -31 -77.5t-78 -30.5t-78.5 30.5t-31.5 77.5q0 46 31.5 77t78.5 31zM351 748l338 -748h-109l-66 150h-330l-66 -150h-109 l338 748h4zM349 523l-127 -284h254z"/>
<glyph glyph-name="AE" horiz-adv-x="870" unicode="Æ" d="M349 553l-130 -318h260zM831 735v-94h-410l93 -225h274v-87h-238l98 -235h191v-94h-264l-64 155h-325l-63 -155h-114l319 735h503z"/>
<glyph glyph-name="Ccedilla" horiz-adv-x="680" unicode="Ç" d="M403 748q155 0 260 -107l-65 -74q-80 87 -195 87q-118 0 -192.5 -81t-74.5 -206t74.5 -205.5t192.5 -80.5q120 0 200 92l64 -76q-100 -108 -261 -110l-7 -43q42 -4 66 -28.5t24 -65.5q0 -46 -29 -74t-80 -28q-64 0 -99 40l39 45q24 -28 57 -28q44 0 44 42q0 38 -41 42 q-6 1 -12 1q-19 0 -36 -8l-3 4l18 105q-140 19 -227 123t-87 253q0 165 104.5 273t265.5 108z"/>
<glyph glyph-name="Egrave" horiz-adv-x="577" unicode="È" d="M239 887l133 -115h-108l-146 115h121zM537 735v-94h-353v-223h310v-91h-310v-233h361v-94h-463v735h455z"/>
<glyph glyph-name="Eacute" horiz-adv-x="577" unicode="É" d="M508 887l-146 -115h-108l133 115h121zM537 735v-94h-353v-223h310v-91h-310v-233h361v-94h-463v735h455z"/>
<glyph glyph-name="Ecircumflex" horiz-adv-x="577" unicode="Ê" d="M317 916l159 -145h-91l-68 61l-68 -61h-91zM537 735v-94h-353v-223h310v-91h-310v-233h361v-94h-463v735h455z"/>
<glyph glyph-name="Edieresis" horiz-adv-x="577" unicode="Ë" d="M403 883q23 0 39 -15.5t16 -38.5t-16 -38.5t-39 -15.5t-38.5 15.5t-15.5 38.5t15.5 38.5t38.5 15.5zM232 883q24 0 39.5 -15.5t15.5 -38.5t-15.5 -38.5t-39.5 -15.5q-23 0 -38.5 15.5t-15.5 38.5t15.5 38.5t38.5 15.5zM537 735v-94h-353v-223h310v-91h-310v-233h361v-94 h-463v735h455z"/>
<glyph glyph-name="Igrave" horiz-adv-x="266" unicode="Ì" d="M55 887l133 -115h-108l-146 115h121zM184 735v-735h-102v735h102z"/>
<glyph glyph-name="Iacute" horiz-adv-x="266" unicode="Í" d="M322 887l-146 -115h-108l133 115h121zM184 735v-735h-102v735h102z"/>
<glyph glyph-name="Icircumflex" horiz-adv-x="266" unicode="Î" d="M133 916l159 -145h-91l-68 61l-68 -61h-91zM184 735v-735h-102v735h102z"/>
<glyph glyph-name="Idieresis" horiz-adv-x="266" unicode="Ï" d="M219 883q23 0 39 -15.5t16 -38.5t-16 -38.5t-39 -15.5t-38.5 15.5t-15.5 38.5t15.5 38.5t38.5 15.5zM48 883q24 0 39.5 -15.5t15.5 -38.5t-15.5 -38.5t-39.5 -15.5q-23 0 -38.5 15.5t-15.5 38.5t15.5 38.5t38.5 15.5zM184 735v-735h-102v735h102z"/>
<glyph glyph-name="Eth" horiz-adv-x="750" unicode="Ð" d="M319 640h-117v-228h114v-69h-114v-249h117q142 0 218.5 71.5t76.5 202.5q0 129 -77 200.5t-218 71.5zM322 735q186 0 290.5 -96.5t104.5 -270.5t-104 -271t-291 -97h-222v343h-87v69h87v323h222z"/>
<glyph glyph-name="Ntilde" horiz-adv-x="729" unicode="Ñ" d="M303 915q29 0 49.5 -12t29.5 -27t22 -27t28 -12q32 0 32 72h64q0 -68 -28.5 -103.5t-73.5 -35.5q-29 0 -49 12t-28 27t-20.5 27t-28.5 12q-34 0 -34 -72h-65q0 70 28.5 104.5t73.5 34.5zM647 735v-748h-4l-459 507v-494h-102v748h4l459 -506v493h102z"/>
<glyph glyph-name="Ograve" horiz-adv-x="806" unicode="Ò" d="M324 897l133 -115h-108l-146 115h121zM403 654q-117 0 -192 -81t-75 -206t75 -205.5t192 -80.5t192 80.5t75 205.5t-75 206t-192 81zM403 748q160 0 265.5 -108.5t105.5 -272.5q0 -165 -105.5 -272.5t-265.5 -107.5q-161 0 -265.5 107.5t-104.5 272.5q0 164 105 272.5 t265 108.5z"/>
<glyph glyph-name="Oacute" horiz-adv-x="806" unicode="Ó" d="M593 897l-146 -115h-108l133 115h121zM403 654q-117 0 -192 -81t-75 -206t75 -205.5t192 -80.5t192 80.5t75 205.5t-75 206t-192 81zM403 748q160 0 265.5 -108.5t105.5 -272.5q0 -165 -105.5 -272.5t-265.5 -107.5q-161 0 -265.5 107.5t-104.5 272.5q0 164 105 272.5 t265 108.5z"/>
<glyph glyph-name="Ocircumflex" horiz-adv-x="806" unicode="Ô" d="M402 926l159 -145h-91l-68 61l-68 -61h-91zM403 654q-117 0 -192 -81t-75 -206t75 -205.5t192 -80.5t192 80.5t75 205.5t-75 206t-192 81zM403 748q160 0 265.5 -108.5t105.5 -272.5q0 -165 -105.5 -272.5t-265.5 -107.5q-161 0 -265.5 107.5t-104.5 272.5 q0 164 105 272.5t265 108.5z"/>
<glyph glyph-name="Otilde" horiz-adv-x="806" unicode="Õ" d="M341 925q29 0 49.5 -12t29.5 -27t22 -27t28 -12q32 0 32 72h64q0 -68 -28.5 -103.5t-73.5 -35.5q-29 0 -49 12t-28 27t-20.5 27t-28.5 12q-34 0 -34 -72h-65q0 70 28.5 104.5t73.5 34.5zM403 654q-117 0 -192 -81t-75 -206t75 -205.5t192 -80.5t192 80.5t75 205.5 t-75 206t-192 81zM403 748q160 0 265.5 -108.5t105.5 -272.5q0 -165 -105.5 -272.5t-265.5 -107.5q-161 0 -265.5 107.5t-104.5 272.5q0 164 105 272.5t265 108.5z"/>
<glyph glyph-name="Odieresis" horiz-adv-x="806" unicode="Ö" d="M488 893q23 0 39 -15.5t16 -38.5t-16 -38.5t-39 -15.5t-38.5 15.5t-15.5 38.5t15.5 38.5t38.5 15.5zM317 893q24 0 39.5 -15.5t15.5 -38.5t-15.5 -38.5t-39.5 -15.5q-23 0 -38.5 15.5t-15.5 38.5t15.5 38.5t38.5 15.5zM403 654q-117 0 -192 -81t-75 -206t75 -205.5 t192 -80.5t192 80.5t75 205.5t-75 206t-192 81zM403 748q160 0 265.5 -108.5t105.5 -272.5q0 -165 -105.5 -272.5t-265.5 -107.5q-161 0 -265.5 107.5t-104.5 272.5q0 164 105 272.5t265 108.5z"/>
<glyph glyph-name="multiply" horiz-adv-x="455" unicode="×" d="M347 533l64 -63l-120 -120l120 -120l-64 -64l-119 120l-120 -120l-64 64l120 120l-120 119l64 64l120 -119z"/>
<glyph glyph-name="Oslash" horiz-adv-x="806" unicode="Ø" d="M670 367q0 145 -98 227l-271 -494q45 -19 102 -19q117 0 192 80.5t75 205.5zM403 654q-117 0 -192 -81t-75 -206q0 -146 97 -227l272 494q-48 20 -102 20zM403 748q79 0 148 -29l53 96h89l-73 -134q72 -52 113 -133.5t41 -180.5q0 -165 -105.5 -272.5t-265.5 -107.5 q-80 0 -148 28l-52 -95h-90l73 133q-72 51 -112.5 132.5t-40.5 181.5q0 164 105 272.5t265 108.5z"/>
<glyph glyph-name="Ugrave" horiz-adv-x="689" unicode="Ù" d="M266 887l133 -115h-108l-146 115h121zM616 735v-476q0 -126 -70 -199t-201 -73q-132 0 -202 73t-70 199v476h102v-470q0 -85 43.5 -134.5t126.5 -49.5q82 0 125.5 49.5t43.5 134.5v470h102z"/>
<glyph glyph-name="Uacute" horiz-adv-x="689" unicode="Ú" d="M534 887l-146 -115h-108l133 115h121zM616 735v-476q0 -126 -70 -199t-201 -73q-132 0 -202 73t-70 199v476h102v-470q0 -85 43.5 -134.5t126.5 -49.5q82 0 125.5 49.5t43.5 134.5v470h102z"/>
<glyph glyph-name="Ucircumflex" horiz-adv-x="689" unicode="Û" d="M344 916l159 -145h-91l-68 61l-68 -61h-91zM616 735v-476q0 -126 -70 -199t-201 -73q-132 0 -202 73t-70 199v476h102v-470q0 -85 43.5 -134.5t126.5 -49.5q82 0 125.5 49.5t43.5 134.5v470h102z"/>
<glyph glyph-name="Udieresis" horiz-adv-x="689" unicode="Ü" d="M430 883q23 0 39 -15.5t16 -38.5t-16 -38.5t-39 -15.5t-38.5 15.5t-15.5 38.5t15.5 38.5t38.5 15.5zM259 883q24 0 39.5 -15.5t15.5 -38.5t-15.5 -38.5t-39.5 -15.5q-23 0 -38.5 15.5t-15.5 38.5t15.5 38.5t38.5 15.5zM616 735v-476q0 -126 -70 -199t-201 -73 q-132 0 -202 73t-70 199v476h102v-470q0 -85 43.5 -134.5t126.5 -49.5q82 0 125.5 49.5t43.5 134.5v470h102z"/>
<glyph glyph-name="Yacute" horiz-adv-x="660" unicode="Ý" d="M519 887l-146 -115h-108l133 115h121zM653 734l-272 -423v-311h-102v309l-272 425h119l204 -322l203 322h120z"/>
<glyph glyph-name="Thorn" horiz-adv-x="566" unicode="Þ" d="M299 513h-115v-235h115q58 0 97 31.5t39 86.5q0 54 -39 85.5t-97 31.5zM184 735v-132h124q95 0 162.5 -56t67.5 -151q0 -96 -67 -151.5t-163 -55.5h-124v-189h-102v735h102z"/>
<glyph glyph-name="germandbls" horiz-adv-x="647" unicode="ß" d="M314 748q97 0 157 -57t60 -146q0 -103 -91 -144q57 -16 98.5 -63.5t41.5 -128.5q0 -100 -63 -161t-171 -61q-62 0 -105 24l21 88q39 -22 81 -22q58 0 95.5 35.5t37.5 97.5q0 48 -26 80.5t-73 46.5q-41 12 -85 12v75q35 0 72 17q64 29 64 97q0 55 -34.5 88t-83.5 33 q-58 0 -91.5 -33.5t-33.5 -99.5v-526h-100v521q0 104 65.5 165.5t163.5 61.5z"/>
<glyph glyph-name="agrave" horiz-adv-x="593" unicode="à" d="M209 707l138 -131h-99l-155 131h116zM280 425q-66 0 -108.5 -48t-42.5 -126t42.5 -126t108.5 -48q86 0 138 85v178q-52 85 -138 85zM262 512q107 0 161 -71l4 61h89v-502h-89l-4 61q-54 -71 -161 -71q-103 0 -167.5 73.5t-64.5 187.5t64.5 187.5t167.5 73.5z"/>
<glyph glyph-name="aacute" horiz-adv-x="593" unicode="á" d="M489 707l-155 -131h-99l138 131h116zM280 425q-66 0 -108.5 -48t-42.5 -126t42.5 -126t108.5 -48q86 0 138 85v178q-52 85 -138 85zM262 512q107 0 161 -71l4 61h89v-502h-89l-4 61q-54 -71 -161 -71q-103 0 -167.5 73.5t-64.5 187.5t64.5 187.5t167.5 73.5z"/>
<glyph glyph-name="acircumflex" horiz-adv-x="593" unicode="â" d="M293 743l154 -167h-89l-65 65l-66 -65h-89zM280 425q-66 0 -108.5 -48t-42.5 -126t42.5 -126t108.5 -48q86 0 138 85v178q-52 85 -138 85zM262 512q107 0 161 -71l4 61h89v-502h-89l-4 61q-54 -71 -161 -71q-103 0 -167.5 73.5t-64.5 187.5t64.5 187.5t167.5 73.5z"/>
<glyph glyph-name="atilde" horiz-adv-x="593" unicode="ã" d="M232 717q29 0 49.5 -12t29.5 -27t22 -27t28 -12q32 0 32 72h64q0 -68 -28.5 -103.5t-73.5 -35.5q-29 0 -49 12t-28 27t-20.5 27t-28.5 12q-34 0 -34 -72h-65q0 70 28.5 104.5t73.5 34.5zM280 425q-66 0 -108.5 -48t-42.5 -126t42.5 -126t108.5 -48q86 0 138 85v178 q-52 85 -138 85zM262 512q107 0 161 -71l4 61h89v-502h-89l-4 61q-54 -71 -161 -71q-103 0 -167.5 73.5t-64.5 187.5t64.5 187.5t167.5 73.5z"/>
<glyph glyph-name="adieresis" horiz-adv-x="593" unicode="ä" d="M379 695q23 0 39 -15.5t16 -38.5t-16 -38.5t-39 -15.5t-38.5 15.5t-15.5 38.5t15.5 38.5t38.5 15.5zM208 695q24 0 39.5 -15.5t15.5 -38.5t-15.5 -38.5t-39.5 -15.5q-23 0 -38.5 15.5t-15.5 38.5t15.5 38.5t38.5 15.5zM280 425q-66 0 -108.5 -48t-42.5 -126t42.5 -126 t108.5 -48q86 0 138 85v178q-52 85 -138 85zM262 512q107 0 161 -71l4 61h89v-502h-89l-4 61q-54 -71 -161 -71q-103 0 -167.5 73.5t-64.5 187.5t64.5 187.5t167.5 73.5z"/>
<glyph glyph-name="aring" horiz-adv-x="593" unicode="å" d="M294 731q-22 0 -37 -15.5t-15 -37.5t15 -36.5t37 -14.5t37 14.5t15 36.5t-15 37.5t-37 15.5zM294 787q46 0 77.5 -31.5t31.5 -77.5t-31 -76.5t-78 -30.5t-78.5 30.5t-31.5 76.5q0 47 31.5 78t78.5 31zM280 425q-66 0 -108.5 -48t-42.5 -126t42.5 -126t108.5 -48 q86 0 138 85v178q-52 85 -138 85zM262 512q107 0 161 -71l4 61h89v-502h-89l-4 61q-54 -71 -161 -71q-103 0 -167.5 73.5t-64.5 187.5t64.5 187.5t167.5 73.5z"/>
<glyph glyph-name="ae" horiz-adv-x="944" unicode="æ" d="M280 425q-66 0 -108.5 -48t-42.5 -126t42.5 -126t108.5 -48q86 0 138 85v178q-52 85 -138 85zM676 428q-58 0 -97.5 -33t-45.5 -99h281q-3 60 -39 96t-99 36zM680 512q108 0 169.5 -72t61.5 -188v-36h-377q11 -142 156 -142q90 0 141 64l68 -57q-76 -91 -206 -91 q-127 0 -179 71l-4 -61h-83l-4 61q-54 -71 -161 -71q-103 0 -167.5 73.5t-64.5 187.5t64.5 187.5t167.5 73.5q107 0 161 -71l4 61h84l4 -61q66 71 165 71z"/>
<glyph glyph-name="ccedilla" horiz-adv-x="506" unicode="ç" d="M283 512q130 0 201 -108l-73 -56q-48 78 -127 78q-74 0 -114.5 -48.5t-40.5 -126.5q0 -77 41 -126t115 -49q81 0 129 78l73 -56q-69 -105 -198 -108l-7 -46q42 -4 66 -28.5t24 -65.5q0 -46 -29 -74t-80 -28q-64 0 -99 40l39 45q24 -28 57 -28q44 0 44 42q0 38 -41 42 q-6 1 -12 1q-19 0 -36 -8l-3 4l19 109q-93 16 -147 85.5t-54 170.5q0 115 69 188t184 73z"/>
<glyph glyph-name="egrave" horiz-adv-x="530" unicode="è" d="M184 707l138 -131h-99l-155 131h116zM270 428q-61 0 -99 -36t-42 -96h271q-2 60 -36 96t-94 36zM270 512q108 0 167.5 -73t59.5 -184v-39h-368q2 -69 41.5 -105.5t110.5 -36.5q90 0 136 64l68 -57q-74 -91 -204 -91q-115 0 -183 72.5t-68 187.5q0 114 67.5 188t172.5 74z "/>
<glyph glyph-name="eacute" horiz-adv-x="530" unicode="é" d="M465 707l-155 -131h-99l138 131h116zM270 428q-61 0 -99 -36t-42 -96h271q-2 60 -36 96t-94 36zM270 512q108 0 167.5 -73t59.5 -184v-39h-368q2 -69 41.5 -105.5t110.5 -36.5q90 0 136 64l68 -57q-74 -91 -204 -91q-115 0 -183 72.5t-68 187.5q0 114 67.5 188t172.5 74z "/>
<glyph glyph-name="ecircumflex" horiz-adv-x="530" unicode="ê" d="M269 743l154 -167h-89l-65 65l-66 -65h-89zM270 428q-61 0 -99 -36t-42 -96h271q-2 60 -36 96t-94 36zM270 512q108 0 167.5 -73t59.5 -184v-39h-368q2 -69 41.5 -105.5t110.5 -36.5q90 0 136 64l68 -57q-74 -91 -204 -91q-115 0 -183 72.5t-68 187.5q0 114 67.5 188 t172.5 74z"/>
<glyph glyph-name="edieresis" horiz-adv-x="530" unicode="ë" d="M354 695q23 0 39 -15.5t16 -38.5t-16 -38.5t-39 -15.5t-38.5 15.5t-15.5 38.5t15.5 38.5t38.5 15.5zM183 695q24 0 39.5 -15.5t15.5 -38.5t-15.5 -38.5t-39.5 -15.5q-23 0 -38.5 15.5t-15.5 38.5t15.5 38.5t38.5 15.5zM270 428q-61 0 -99 -36t-42 -96h271q-2 60 -36 96 t-94 36zM270 512q108 0 167.5 -73t59.5 -184v-39h-368q2 -69 41.5 -105.5t110.5 -36.5q90 0 136 64l68 -57q-74 -91 -204 -91q-115 0 -183 72.5t-68 187.5q0 114 67.5 188t172.5 74z"/>
<glyph glyph-name="igrave" horiz-adv-x="253" unicode="ì" d="M175 502v-502h-98v502h98zM42 707l138 -131h-99l-155 131h116z"/>
<glyph glyph-name="iacute" horiz-adv-x="253" unicode="í" d="M175 502v-502h-98v502h98zM322 707l-155 -131h-99l138 131h116z"/>
<glyph glyph-name="icircumflex" horiz-adv-x="253" unicode="î" d="M127 743l154 -167h-89l-65 65l-66 -65h-89zM175 502v-502h-98v502h98z"/>
<glyph glyph-name="idieresis" horiz-adv-x="253" unicode="ï" d="M175 502v-502h-98v502h98zM212 695q23 0 39 -15.5t16 -38.5t-16 -38.5t-39 -15.5t-38.5 15.5t-15.5 38.5t15.5 38.5t38.5 15.5zM41 695q24 0 39.5 -15.5t15.5 -38.5t-15.5 -38.5t-39.5 -15.5q-23 0 -38.5 15.5t-15.5 38.5t15.5 38.5t38.5 15.5z"/>
<glyph glyph-name="eth" horiz-adv-x="567" unicode="ð" d="M285 403q-66 0 -109 -47.5t-43 -118.5t43 -118t109 -47t109.5 47t43.5 118t-43.5 118.5t-109.5 47.5zM285 485q12 0 17 -1l-59 88h-172v74h122l-76 114h119l76 -114h175v-74h-125l117 -174q57 -68 57 -161q0 -107 -71 -177t-180 -70t-179.5 70t-70.5 177t71 177.5 t179 70.5z"/>
<glyph glyph-name="ntilde" horiz-adv-x="583" unicode="ñ" d="M236 717q29 0 49.5 -12t29.5 -27t22 -27t28 -12q32 0 32 72h64q0 -68 -28.5 -103.5t-73.5 -35.5q-29 0 -49 12t-28 27t-20.5 27t-28.5 12q-34 0 -34 -72h-65q0 70 28.5 104.5t73.5 34.5zM329 512q89 0 139.5 -58.5t50.5 -156.5v-297h-98v291q0 57 -31.5 92.5t-84.5 35.5 q-74 0 -130 -80v-339h-98v502h89l4 -61q56 71 159 71z"/>
<glyph glyph-name="ograve" d="M202 707l138 -131h-99l-155 131h116zM287 425q-69 0 -113.5 -49.5t-44.5 -125.5q0 -75 44.5 -124t113.5 -49t114 49t45 124q0 76 -45 125.5t-114 49.5zM287 512q112 0 185 -74.5t73 -187.5t-73 -186.5t-185 -73.5t-184.5 73.5t-72.5 186.5t72.5 187.5t184.5 74.5z" unicode="ò"/>
<glyph glyph-name="oacute" d="M483 707l-155 -131h-99l138 131h116zM287 425q-69 0 -113.5 -49.5t-44.5 -125.5q0 -75 44.5 -124t113.5 -49t114 49t45 124q0 76 -45 125.5t-114 49.5zM287 512q112 0 185 -74.5t73 -187.5t-73 -186.5t-185 -73.5t-184.5 73.5t-72.5 186.5t72.5 187.5t184.5 74.5z" unicode="ó"/>
<glyph glyph-name="ocircumflex" d="M287 743l154 -167h-89l-65 65l-66 -65h-89zM287 425q-69 0 -113.5 -49.5t-44.5 -125.5q0 -75 44.5 -124t113.5 -49t114 49t45 124q0 76 -45 125.5t-114 49.5zM287 512q112 0 185 -74.5t73 -187.5t-73 -186.5t-185 -73.5t-184.5 73.5t-72.5 186.5t72.5 187.5t184.5 74.5z " unicode="ô"/>
<glyph glyph-name="otilde" d="M225 717q29 0 49.5 -12t29.5 -27t22 -27t28 -12q32 0 32 72h64q0 -68 -28.5 -103.5t-73.5 -35.5q-29 0 -49 12t-28 27t-20.5 27t-28.5 12q-34 0 -34 -72h-65q0 70 28.5 104.5t73.5 34.5zM287 425q-69 0 -113.5 -49.5t-44.5 -125.5q0 -75 44.5 -124t113.5 -49t114 49 t45 124q0 76 -45 125.5t-114 49.5zM287 512q112 0 185 -74.5t73 -187.5t-73 -186.5t-185 -73.5t-184.5 73.5t-72.5 186.5t72.5 187.5t184.5 74.5z" unicode="õ"/>
<glyph glyph-name="odieresis" d="M372 695q23 0 39 -15.5t16 -38.5t-16 -38.5t-39 -15.5t-38.5 15.5t-15.5 38.5t15.5 38.5t38.5 15.5zM201 695q24 0 39.5 -15.5t15.5 -38.5t-15.5 -38.5t-39.5 -15.5q-23 0 -38.5 15.5t-15.5 38.5t15.5 38.5t38.5 15.5zM287 425q-69 0 -113.5 -49.5t-44.5 -125.5 q0 -75 44.5 -124t113.5 -49t114 49t45 124q0 76 -45 125.5t-114 49.5zM287 512q112 0 185 -74.5t73 -187.5t-73 -186.5t-185 -73.5t-184.5 73.5t-72.5 186.5t72.5 187.5t184.5 74.5z" unicode="ö"/>
<glyph glyph-name="divide" horiz-adv-x="486" unicode="÷" d="M446 395v-90h-407v90h407zM242 219q28 0 45.5 -17.5t17.5 -45.5q0 -27 -17.5 -45t-45.5 -18q-27 0 -44.5 18t-17.5 45t17.5 45t44.5 18zM242 604q28 0 45.5 -18t17.5 -46q0 -26 -17.5 -44t-45.5 -18q-27 0 -44.5 18t-17.5 44q0 28 17.5 46t44.5 18z"/>
<glyph glyph-name="oslash" d="M450 250q0 85 -55 137l-165 -305q24 -10 57 -10q71 0 117 50.5t46 127.5zM287 430q-71 0 -117 -51t-46 -129q0 -87 56 -138l166 307q-28 11 -59 11zM287 512q54 0 99 -18l43 78h66l-57 -106q50 -35 78.5 -91.5t28.5 -124.5q0 -113 -73 -186.5t-185 -73.5q-48 0 -97 17 l-42 -77h-67l56 104q-50 34 -78.5 90.5t-28.5 125.5q0 113 72.5 187.5t184.5 74.5z" unicode="ø"/>
<glyph glyph-name="ugrave" d="M196 707l138 -131h-99l-155 131h116zM498 502v-502h-89l-4 61q-56 -71 -161 -71q-85 0 -132 57.5t-47 155.5v299h98v-294q0 -56 28.5 -90.5t77.5 -34.5q43 0 73.5 21t57.5 59v339h98z" unicode="ù"/>
<glyph glyph-name="uacute" d="M476 707l-155 -131h-99l138 131h116zM498 502v-502h-89l-4 61q-56 -71 -161 -71q-85 0 -132 57.5t-47 155.5v299h98v-294q0 -56 28.5 -90.5t77.5 -34.5q43 0 73.5 21t57.5 59v339h98z" unicode="ú"/>
<glyph glyph-name="ucircumflex" d="M281 743l154 -167h-89l-65 65l-66 -65h-89zM498 502v-502h-89l-4 61q-56 -71 -161 -71q-85 0 -132 57.5t-47 155.5v299h98v-294q0 -56 28.5 -90.5t77.5 -34.5q43 0 73.5 21t57.5 59v339h98z" unicode="û"/>
<glyph glyph-name="udieresis" d="M366 695q23 0 39 -15.5t16 -38.5t-16 -38.5t-39 -15.5t-38.5 15.5t-15.5 38.5t15.5 38.5t38.5 15.5zM195 695q24 0 39.5 -15.5t15.5 -38.5t-15.5 -38.5t-39.5 -15.5q-23 0 -38.5 15.5t-15.5 38.5t15.5 38.5t38.5 15.5zM498 502v-502h-89l-4 61q-56 -71 -161 -71 q-85 0 -132 57.5t-47 155.5v299h98v-294q0 -56 28.5 -90.5t77.5 -34.5q43 0 73.5 21t57.5 59v339h98z" unicode="ü"/>
<glyph glyph-name="yacute" horiz-adv-x="552" unicode="ý" d="M464 707l-155 -131h-99l138 131h116zM537 502l-367 -732h-112l165 312l-207 420h109l151 -310l151 310h110z"/>
<glyph glyph-name="thorn" horiz-adv-x="592" unicode="þ" d="M313 425q-86 0 -138 -85v-178q52 -85 138 -85q66 0 108.5 48t42.5 126t-42.5 126t-108.5 48zM175 760v-312q55 64 156 64q103 0 167.5 -73.5t64.5 -187.5t-64.5 -187.5t-167.5 -73.5q-101 0 -156 64v-284h-98v990h98z"/>
<glyph glyph-name="ydieresis" horiz-adv-x="552" unicode="ÿ" d="M353 695q23 0 39 -15.5t16 -38.5t-16 -38.5t-39 -15.5t-38.5 15.5t-15.5 38.5t15.5 38.5t38.5 15.5zM182 695q24 0 39.5 -15.5t15.5 -38.5t-15.5 -38.5t-39.5 -15.5q-23 0 -38.5 15.5t-15.5 38.5t15.5 38.5t38.5 15.5zM537 502l-367 -732h-112l165 312l-207 420h109 l151 -310l151 310h110z"/>
<glyph glyph-name="Amacron" horiz-adv-x="698" unicode="Ā" d="M478 857v-69h-260v69h260zM351 748l338 -748h-109l-66 150h-330l-66 -150h-109l338 748h4zM349 523l-127 -284h254z"/>
<glyph glyph-name="amacron" horiz-adv-x="593" unicode="ā" d="M423 665v-68h-260v68h260zM280 425q-66 0 -108.5 -48t-42.5 -126t42.5 -126t108.5 -48q86 0 138 85v178q-52 85 -138 85zM262 512q107 0 161 -71l4 61h89v-502h-89l-4 61q-54 -71 -161 -71q-103 0 -167.5 73.5t-64.5 187.5t64.5 187.5t167.5 73.5z"/>
<glyph glyph-name="Abreve" horiz-adv-x="698" unicode="Ă" d="M501 917q0 -63 -43.5 -104t-108.5 -41q-66 0 -109.5 41t-43.5 104h71q0 -32 23 -55t59 -23t58.5 23t22.5 55h71zM351 748l338 -748h-109l-66 150h-330l-66 -150h-109l338 748h4zM349 523l-127 -284h254z"/>
<glyph glyph-name="abreve" horiz-adv-x="593" unicode="ă" d="M445 724q0 -64 -43.5 -106.5t-108.5 -42.5t-109 42.5t-44 106.5h72q0 -35 22.5 -58t58.5 -23q35 0 57.5 23t22.5 58h72zM280 425q-66 0 -108.5 -48t-42.5 -126t42.5 -126t108.5 -48q86 0 138 85v178q-52 85 -138 85zM262 512q107 0 161 -71l4 61h89v-502h-89l-4 61 q-54 -71 -161 -71q-103 0 -167.5 73.5t-64.5 187.5t64.5 187.5t167.5 73.5z"/>
<glyph glyph-name="Aogonek" horiz-adv-x="698" unicode="Ą" d="M349 523l-127 -284h254zM351 748l338 -748h-21q-45 -18 -45 -64q0 -32 19.5 -49.5t49.5 -17.5q18 0 34 8l21 -57q-21 -10 -57 -10q-58 0 -95.5 33.5t-37.5 92.5q0 41 21 68l-64 146h-330l-66 -150h-109l338 748h4z"/>
<glyph glyph-name="aogonek" horiz-adv-x="593" unicode="ą" d="M280 425q-66 0 -108.5 -48t-42.5 -126t42.5 -126t108.5 -48q86 0 138 85v178q-52 85 -138 85zM262 512q107 0 161 -71l4 61h89v-502h-11q-45 -18 -45 -64q0 -32 19.5 -49.5t49.5 -17.5q18 0 34 8l21 -57q-21 -10 -57 -10q-58 0 -95.5 33.5t-37.5 92.5q0 51 32 81l-3 44 q-54 -71 -161 -71q-103 0 -167.5 73.5t-64.5 187.5t64.5 187.5t167.5 73.5z"/>
<glyph glyph-name="Cacute" horiz-adv-x="680" unicode="Ć" d="M586 897l-146 -115h-108l133 115h121zM403 748q155 0 260 -107l-65 -74q-80 87 -195 87q-118 0 -192.5 -81t-74.5 -206t74.5 -205.5t192.5 -80.5q120 0 200 92l64 -76q-101 -110 -264 -110q-161 0 -265.5 108t-104.5 272q0 165 104.5 273t265.5 108z"/>
<glyph glyph-name="cacute" horiz-adv-x="506" unicode="ć" d="M475 707l-155 -131h-99l138 131h116zM283 512q130 0 201 -108l-73 -56q-48 78 -127 78q-74 0 -114.5 -48.5t-40.5 -126.5q0 -77 41 -126t115 -49q81 0 129 78l73 -56q-71 -108 -202 -108q-116 0 -185.5 73t-69.5 188t69 188t184 73z"/>
<glyph glyph-name="Ccircumflex" horiz-adv-x="680" unicode="Ĉ" d="M396 926l159 -145h-91l-68 61l-68 -61h-91zM403 748q155 0 260 -107l-65 -74q-80 87 -195 87q-118 0 -192.5 -81t-74.5 -206t74.5 -205.5t192.5 -80.5q120 0 200 92l64 -76q-101 -110 -264 -110q-161 0 -265.5 108t-104.5 272q0 165 104.5 273t265.5 108z"/>
<glyph glyph-name="ccircumflex" horiz-adv-x="506" unicode="ĉ" d="M279 743l154 -167h-89l-65 65l-66 -65h-89zM283 512q130 0 201 -108l-73 -56q-48 78 -127 78q-74 0 -114.5 -48.5t-40.5 -126.5q0 -77 41 -126t115 -49q81 0 129 78l73 -56q-71 -108 -202 -108q-116 0 -185.5 73t-69.5 188t69 188t184 73z"/>
<glyph glyph-name="Cdotaccent" horiz-adv-x="680" unicode="Ċ" d="M396 900q26 0 43 -17t17 -43t-17 -42.5t-43 -16.5t-42.5 16.5t-16.5 42.5t16.5 43t42.5 17zM403 748q155 0 260 -107l-65 -74q-80 87 -195 87q-118 0 -192.5 -81t-74.5 -206t74.5 -205.5t192.5 -80.5q120 0 200 92l64 -76q-101 -110 -264 -110q-161 0 -265.5 108 t-104.5 272q0 165 104.5 273t265.5 108z"/>
<glyph glyph-name="cdotaccent" horiz-adv-x="506" unicode="ċ" d="M279 722q28 0 46 -18t18 -46t-18 -45.5t-46 -17.5t-46 17.5t-18 45.5t18 46t46 18zM283 512q130 0 201 -108l-73 -56q-48 78 -127 78q-74 0 -114.5 -48.5t-40.5 -126.5q0 -77 41 -126t115 -49q81 0 129 78l73 -56q-71 -108 -202 -108q-116 0 -185.5 73t-69.5 188t69 188 t184 73z"/>
<glyph glyph-name="Ccaron" horiz-adv-x="680" unicode="Č" d="M555 917l-159 -144l-159 144h91l68 -60l68 60h91zM403 748q155 0 260 -107l-65 -74q-80 87 -195 87q-118 0 -192.5 -81t-74.5 -206t74.5 -205.5t192.5 -80.5q120 0 200 92l64 -76q-101 -110 -264 -110q-161 0 -265.5 108t-104.5 272q0 165 104.5 273t265.5 108z"/>
<glyph glyph-name="ccaron" horiz-adv-x="506" unicode="č" d="M433 737l-154 -167l-155 167h89l66 -65l65 65h89zM283 512q130 0 201 -108l-73 -56q-48 78 -127 78q-74 0 -114.5 -48.5t-40.5 -126.5q0 -77 41 -126t115 -49q81 0 129 78l73 -56q-71 -108 -202 -108q-116 0 -185.5 73t-69.5 188t69 188t184 73z"/>
<glyph glyph-name="Dcaron" horiz-adv-x="732" unicode="Ď" d="M495 907l-159 -144l-159 144h91l68 -60l68 60h91zM301 640h-117v-546h117q142 0 218.5 71.5t76.5 202.5q0 129 -77 200.5t-218 71.5zM304 735q186 0 290.5 -96.5t104.5 -270.5t-104 -271t-291 -97h-222v735h222z"/>
<glyph glyph-name="dcaron" horiz-adv-x="752" unicode="ď" d="M642 752q30 0 49.5 -19.5t19.5 -49.5q0 -20 -12 -41l-78 -159h-4v265q11 4 25 4zM280 425q-66 0 -108.5 -48t-42.5 -126t42.5 -126t108.5 -48q86 0 138 85v178q-52 85 -138 85zM516 760v-760h-89l-4 61q-54 -71 -161 -71q-103 0 -167.5 73.5t-64.5 187.5t64.5 187.5 t167.5 73.5q101 0 156 -64v312h98z"/>
<glyph glyph-name="Dcroat" horiz-adv-x="750" unicode="Đ" d="M319 640h-117v-228h114v-69h-114v-249h117q142 0 218.5 71.5t76.5 202.5q0 129 -77 200.5t-218 71.5zM322 735q186 0 290.5 -96.5t104.5 -270.5t-104 -271t-291 -97h-222v343h-87v69h87v323h222z"/>
<glyph glyph-name="dcroat" horiz-adv-x="607" unicode="đ" d="M280 425q-66 0 -108.5 -48t-42.5 -126t42.5 -126t108.5 -48q86 0 138 85v178q-52 85 -138 85zM516 760v-107h90v-69h-90v-584h-89l-4 61q-54 -71 -161 -71q-103 0 -167.5 73.5t-64.5 187.5t64.5 187.5t167.5 73.5q101 0 156 -64v136h-116v69h116v107h98z"/>
<glyph glyph-name="Emacron" horiz-adv-x="577" unicode="Ē" d="M448 857v-69h-260v69h260zM537 735v-94h-353v-223h310v-91h-310v-233h361v-94h-463v735h455z"/>
<glyph glyph-name="emacron" horiz-adv-x="530" unicode="ē" d="M399 665v-68h-260v68h260zM270 428q-61 0 -99 -36t-42 -96h271q-2 60 -36 96t-94 36zM270 512q108 0 167.5 -73t59.5 -184v-39h-368q2 -69 41.5 -105.5t110.5 -36.5q90 0 136 64l68 -57q-74 -91 -204 -91q-115 0 -183 72.5t-68 187.5q0 114 67.5 188t172.5 74z"/>
<glyph glyph-name="Ebreve" horiz-adv-x="577" unicode="Ĕ" d="M470 917q0 -63 -43.5 -104t-108.5 -41q-66 0 -109.5 41t-43.5 104h71q0 -32 23 -55t59 -23t58.5 23t22.5 55h71zM537 735v-94h-353v-223h310v-91h-310v-233h361v-94h-463v735h455z"/>
<glyph glyph-name="ebreve" horiz-adv-x="530" unicode="ĕ" d="M421 724q0 -64 -43.5 -106.5t-108.5 -42.5t-109 42.5t-44 106.5h72q0 -35 22.5 -58t58.5 -23q35 0 57.5 23t22.5 58h72zM270 428q-61 0 -99 -36t-42 -96h271q-2 60 -36 96t-94 36zM270 512q108 0 167.5 -73t59.5 -184v-39h-368q2 -69 41.5 -105.5t110.5 -36.5 q90 0 136 64l68 -57q-74 -91 -204 -91q-115 0 -183 72.5t-68 187.5q0 114 67.5 188t172.5 74z"/>
<glyph glyph-name="Edotaccent" horiz-adv-x="577" unicode="Ė" d="M317 890q26 0 43 -17t17 -43t-17 -42.5t-43 -16.5q-25 0 -42 16.5t-17 42.5t16.5 43t42.5 17zM537 735v-94h-353v-223h310v-91h-310v-233h361v-94h-463v735h455z"/>
<glyph glyph-name="edotaccent" horiz-adv-x="530" unicode="ė" d="M269 722q28 0 46 -18t18 -46t-18 -45.5t-46 -17.5t-46 17.5t-18 45.5t18 46t46 18zM270 428q-61 0 -99 -36t-42 -96h271q-2 60 -36 96t-94 36zM270 512q108 0 167.5 -73t59.5 -184v-39h-368q2 -69 41.5 -105.5t110.5 -36.5q90 0 136 64l68 -57q-74 -91 -204 -91 q-115 0 -183 72.5t-68 187.5q0 114 67.5 188t172.5 74z"/>
<glyph glyph-name="Eogonek" horiz-adv-x="577" unicode="Ę" d="M537 735v-94h-353v-223h310v-91h-310v-233h361v-94h-55q-45 -18 -45 -64q0 -32 19.5 -49.5t49.5 -17.5q18 0 34 8l21 -57q-21 -10 -57 -10q-58 0 -95.5 33.5t-37.5 92.5q0 38 18 64h-315v735h455z"/>
<glyph glyph-name="eogonek" horiz-adv-x="530" unicode="ę" d="M270 428q-61 0 -99 -36t-42 -96h271q-2 60 -36 96t-94 36zM270 512q108 0 167.5 -73t59.5 -184v-39h-368q2 -69 41.5 -105.5t110.5 -36.5q90 0 136 64l68 -57q-40 -50 -99 -73q-25 -19 -25 -53q0 -32 19.5 -49.5t49.5 -17.5q18 0 34 8l21 -57q-21 -10 -57 -10 q-58 0 -95.5 33.5t-37.5 92.5q0 21 4 36q-6 -1 -18 -1q-115 0 -183 72.5t-68 187.5q0 114 67.5 188t172.5 74z"/>
<glyph glyph-name="Ecaron" horiz-adv-x="577" unicode="Ě" d="M476 907l-159 -144l-159 144h91l68 -60l68 60h91zM537 735v-94h-353v-223h310v-91h-310v-233h361v-94h-463v735h455z"/>
<glyph glyph-name="ecaron" horiz-adv-x="530" unicode="ě" d="M423 737l-154 -167l-155 167h89l66 -65l65 65h89zM270 428q-61 0 -99 -36t-42 -96h271q-2 60 -36 96t-94 36zM270 512q108 0 167.5 -73t59.5 -184v-39h-368q2 -69 41.5 -105.5t110.5 -36.5q90 0 136 64l68 -57q-74 -91 -204 -91q-115 0 -183 72.5t-68 187.5 q0 114 67.5 188t172.5 74z"/>
<glyph glyph-name="Gcircumflex" horiz-adv-x="740" unicode="Ĝ" d="M397 926l159 -145h-91l-68 61l-68 -61h-91zM403 748q155 0 260 -107l-65 -74q-80 87 -195 87q-118 0 -192.5 -81t-74.5 -206t77 -205.5t200 -80.5q95 0 166 52v165h-187v89h289v-304q-104 -96 -268 -96q-166 0 -273 108t-107 272q0 165 104.5 273t265.5 108z"/>
<glyph glyph-name="gcircumflex" horiz-adv-x="594" unicode="ĝ" d="M281 743l154 -167h-89l-65 65l-66 -65h-89zM280 425q-66 0 -108.5 -48t-42.5 -126t42.5 -126t108.5 -48q86 0 138 85v178q-52 85 -138 85zM262 512q107 0 161 -71l4 61h89v-489q0 -117 -70 -185t-187 -68q-143 0 -231 105l65 64q68 -82 165 -82q73 0 116.5 44.5 t43.5 119.5v43q-55 -64 -156 -64q-103 0 -167.5 73.5t-64.5 187.5t64.5 187.5t167.5 73.5z"/>
<glyph glyph-name="Gbreve" horiz-adv-x="740" unicode="Ğ" d="M549 927q0 -63 -43.5 -104t-108.5 -41q-66 0 -109.5 41t-43.5 104h71q0 -32 23 -55t59 -23t58.5 23t22.5 55h71zM403 748q155 0 260 -107l-65 -74q-80 87 -195 87q-118 0 -192.5 -81t-74.5 -206t77 -205.5t200 -80.5q95 0 166 52v165h-187v89h289v-304q-104 -96 -268 -96 q-166 0 -273 108t-107 272q0 165 104.5 273t265.5 108z"/>
<glyph glyph-name="gbreve" horiz-adv-x="594" unicode="ğ" d="M433 724q0 -64 -43.5 -106.5t-108.5 -42.5t-109 42.5t-44 106.5h72q0 -35 22.5 -58t58.5 -23q35 0 57.5 23t22.5 58h72zM280 425q-66 0 -108.5 -48t-42.5 -126t42.5 -126t108.5 -48q86 0 138 85v178q-52 85 -138 85zM262 512q107 0 161 -71l4 61h89v-489q0 -117 -70 -185 t-187 -68q-143 0 -231 105l65 64q68 -82 165 -82q73 0 116.5 44.5t43.5 119.5v43q-55 -64 -156 -64q-103 0 -167.5 73.5t-64.5 187.5t64.5 187.5t167.5 73.5z"/>
<glyph glyph-name="Gdotaccent" horiz-adv-x="740" unicode="Ġ" d="M397 900q26 0 43 -17t17 -43t-17 -42.5t-43 -16.5q-25 0 -42 16.5t-17 42.5t16.5 43t42.5 17zM403 748q155 0 260 -107l-65 -74q-80 87 -195 87q-118 0 -192.5 -81t-74.5 -206t77 -205.5t200 -80.5q95 0 166 52v165h-187v89h289v-304q-104 -96 -268 -96q-166 0 -273 108 t-107 272q0 165 104.5 273t265.5 108z"/>
<glyph glyph-name="gdotaccent" horiz-adv-x="594" unicode="ġ" d="M280 722q28 0 46 -18t18 -46t-18 -45.5t-46 -17.5t-46 17.5t-18 45.5t18 46t46 18zM280 425q-66 0 -108.5 -48t-42.5 -126t42.5 -126t108.5 -48q86 0 138 85v178q-52 85 -138 85zM262 512q107 0 161 -71l4 61h89v-489q0 -117 -70 -185t-187 -68q-143 0 -231 105l65 64 q68 -82 165 -82q73 0 116.5 44.5t43.5 119.5v43q-55 -64 -156 -64q-103 0 -167.5 73.5t-64.5 187.5t64.5 187.5t167.5 73.5z"/>
<glyph glyph-name="Gcommaaccent" horiz-adv-x="740" unicode="Ģ" d="M382 -51q30 0 49.5 -19.5t19.5 -49.5q0 -24 -12 -40l-78 -137h-4v242q11 4 25 4zM403 748q155 0 260 -107l-65 -74q-80 87 -195 87q-118 0 -192.5 -81t-74.5 -206t77 -205.5t200 -80.5q95 0 166 52v165h-187v89h289v-304q-104 -96 -268 -96q-166 0 -273 108t-107 272 q0 165 104.5 273t265.5 108z"/>
<glyph glyph-name="gcommaaccent" horiz-adv-x="594" unicode="ģ" d="M336 832v-264q-13 -5 -24 -5q-30 0 -50 20t-20 50q0 20 13 40l77 159h4zM280 425q-66 0 -108.5 -48t-42.5 -126t42.5 -126t108.5 -48q86 0 138 85v178q-52 85 -138 85zM262 512q107 0 161 -71l4 61h89v-489q0 -117 -70 -185t-187 -68q-143 0 -231 105l65 64 q68 -82 165 -82q73 0 116.5 44.5t43.5 119.5v43q-55 -64 -156 -64q-103 0 -167.5 73.5t-64.5 187.5t64.5 187.5t167.5 73.5z"/>
<glyph glyph-name="Hcircumflex" horiz-adv-x="733" unicode="Ĥ" d="M366 916l159 -145h-91l-68 61l-68 -61h-91zM651 735v-735h-102v329h-365v-329h-102v735h102v-312h365v312h102z"/>
<glyph glyph-name="hcircumflex" horiz-adv-x="583" unicode="ĥ" d="M132 926l159 -145h-91l-68 61l-68 -61h-91zM175 760v-313q60 65 154 65q89 0 139.5 -58.5t50.5 -156.5v-297h-98v291q0 57 -31.5 92.5t-84.5 35.5q-74 0 -130 -80v-339h-98v760h98z"/>
<glyph glyph-name="Hbar" horiz-adv-x="758" unicode="Ħ" d="M196 414h365v120h-365v-120zM663 735v-132h83v-69h-83v-534h-102v324h-365v-324h-102v534h-82v69h82v132h102v-132h365v132h102z"/>
<glyph glyph-name="hbar" horiz-adv-x="599" unicode="ħ" d="M190 760v-107h114v-69h-114v-137q60 65 154 65q90 0 140 -58.5t50 -156.5v-297h-98v291q0 57 -31.5 92.5t-84.5 35.5q-74 0 -130 -80v-339h-98v584h-92v69h92v107h98z"/>
<glyph glyph-name="Itilde" horiz-adv-x="266" unicode="Ĩ" d="M72 915q29 0 49.5 -12t29.5 -27t22 -27t28 -12q32 0 32 72h64q0 -68 -28.5 -103.5t-73.5 -35.5q-29 0 -49 12t-28 27t-20.5 27t-28.5 12q-34 0 -34 -72h-65q0 70 28.5 104.5t73.5 34.5zM184 735v-735h-102v735h102z"/>
<glyph glyph-name="itilde" horiz-adv-x="253" unicode="ĩ" d="M175 502v-502h-98v502h98zM65 717q29 0 49.5 -12t29.5 -27t22 -27t28 -12q32 0 32 72h64q0 -68 -28.5 -103.5t-73.5 -35.5q-29 0 -49 12t-28 27t-20.5 27t-28.5 12q-34 0 -34 -72h-65q0 70 28.5 104.5t73.5 34.5z"/>
<glyph glyph-name="Imacron" horiz-adv-x="266" unicode="Ī" d="M263 857v-69h-260v69h260zM184 735v-735h-102v735h102z"/>
<glyph glyph-name="imacron" horiz-adv-x="253" unicode="ī" d="M175 502v-502h-98v502h98zM257 665v-68h-260v68h260z"/>
<glyph glyph-name="Ibreve" horiz-adv-x="266" unicode="Ĭ" d="M286 917q0 -63 -43.5 -104t-108.5 -41q-66 0 -109.5 41t-43.5 104h71q0 -32 23 -55t59 -23t58.5 23t22.5 55h71zM184 735v-735h-102v735h102z"/>
<glyph glyph-name="ibreve" horiz-adv-x="253" unicode="ĭ" d="M175 502v-502h-98v502h98zM279 724q0 -64 -43.5 -106.5t-108.5 -42.5t-109 42.5t-44 106.5h72q0 -35 22.5 -58t58.5 -23q35 0 57.5 23t22.5 58h72z"/>
<glyph glyph-name="Iogonek" horiz-adv-x="266" unicode="Į" d="M184 735v-735h-43q-45 -18 -45 -64q0 -32 19.5 -49.5t49.5 -17.5q18 0 34 8l21 -57q-21 -10 -57 -10q-58 0 -95.5 33.5t-37.5 92.5q0 63 52 97v702h102z"/>
<glyph glyph-name="iogonek" horiz-adv-x="253" unicode="į" d="M127 728q27 0 45.5 -18.5t18.5 -45.5q0 -28 -18.5 -46t-45.5 -18q-28 0 -46 18t-18 46q0 27 18 45.5t46 18.5zM175 502v-502h-20q-45 -18 -45 -64q0 -32 19.5 -49.5t49.5 -17.5q18 0 34 8l21 -57q-21 -10 -57 -10q-58 0 -95.5 33.5t-37.5 92.5q0 52 33 82v484h98z"/>
<glyph glyph-name="Idotaccent" horiz-adv-x="266" unicode="İ" d="M132 890q26 0 43 -17t17 -43t-17 -42.5t-43 -16.5t-42.5 16.5t-16.5 42.5t16.5 43t42.5 17zM184 735v-735h-102v735h102z"/>
<glyph glyph-name="dotlessi" horiz-adv-x="253" unicode="ı" d="M175 502v-502h-98v502h98z"/>
<glyph glyph-name="Jcircumflex" horiz-adv-x="540" unicode="Ĵ" d="M414 916l159 -145h-91l-68 61l-68 -61h-91zM469 735v-525q0 -101 -61.5 -162t-161.5 -61q-95 0 -160.5 63.5t-65.5 175.5h100q0 -68 33 -106.5t90 -38.5q58 0 91 35.5t33 98.5v520h102z"/>
<glyph glyph-name="jcircumflex" horiz-adv-x="253" unicode="ĵ" d="M127 743l154 -167h-89l-65 65l-66 -65h-89zM175 502v-559q0 -79 -52 -131t-133 -52q-92 0 -152 62l64 66q37 -41 86 -41q40 0 64.5 24.5t24.5 64.5v566h98z"/>
<glyph glyph-name="Kcommaaccent" horiz-adv-x="667" unicode="Ķ" d="M322 -51q30 0 49.5 -19.5t19.5 -49.5q0 -24 -12 -40l-78 -137h-4v242q11 4 25 4zM605 735l-211 -354l264 -381h-123l-199 289l-175 -289h-79v735h102v-529l301 529h120z"/>
<glyph glyph-name="kcommaaccent" horiz-adv-x="541" unicode="ķ" d="M268 -51q30 0 49.5 -19.5t19.5 -49.5q0 -24 -12 -40l-78 -137h-4v242q11 4 25 4zM175 760v-580l217 322h117l-154 -220l179 -282h-115l-126 201l-137 -201h-79v760h98z"/>
<glyph glyph-name="Lacute" horiz-adv-x="544" unicode="Ĺ" d="M325 887l-146 -115h-108l133 115h121zM184 735v-644h350v-91h-452v735h102z"/>
<glyph glyph-name="lacute" horiz-adv-x="253" unicode="ĺ" d="M325 907l-146 -115h-108l133 115h121zM175 760v-760h-98v760h98z"/>
<glyph glyph-name="Lcommaaccent" horiz-adv-x="544" unicode="Ļ" d="M285 -51q30 0 49.5 -19.5t19.5 -49.5q0 -24 -12 -40l-78 -137h-4v242q11 4 25 4zM184 735v-644h350v-91h-452v735h102z"/>
<glyph glyph-name="lcommaaccent" horiz-adv-x="253" unicode="ļ" d="M105 -51q30 0 49.5 -19.5t19.5 -49.5q0 -24 -12 -40l-78 -137h-4v242q11 4 25 4zM175 760v-760h-98v760h98z"/>
<glyph glyph-name="Lcaron" horiz-adv-x="544" unicode="Ľ" d="M454 752q30 0 49.5 -19.5t19.5 -49.5q0 -20 -12 -41l-78 -159h-4v265q11 4 25 4zM184 735v-644h350v-91h-452v735h102z"/>
<glyph glyph-name="lcaron" horiz-adv-x="412" unicode="ľ" d="M302 752q30 0 49.5 -19.5t19.5 -49.5q0 -20 -12 -41l-78 -159h-4v265q11 4 25 4zM175 760v-760h-98v760h98z"/>
<glyph glyph-name="Ldot" horiz-adv-x="544" unicode="Ŀ" d="M402 401q28 0 47 -18.5t19 -47.5q0 -28 -19 -46.5t-47 -18.5t-47 18.5t-19 46.5q0 29 19 47.5t47 18.5zM184 735v-644h350v-91h-452v735h102z"/>
<glyph glyph-name="ldot" horiz-adv-x="438" unicode="ŀ" d="M341 322q29 0 47.5 -19t18.5 -47t-19 -46.5t-47 -18.5t-47 18.5t-19 46.5t18.5 47t47.5 19zM175 760v-760h-98v760h98z"/>
<glyph glyph-name="Lslash" horiz-adv-x="571" unicode="Ł" d="M210 735v-351l103 51l29 -72l-132 -66v-206h350v-91h-452v246l-81 -40l-29 73l110 54v402h102z"/>
<glyph glyph-name="lslash" horiz-adv-x="275" unicode="ł" d="M186 760v-354l77 38l26 -62l-103 -51v-331h-98v282l-75 -37l-27 63l102 50v402h98z"/>
<glyph glyph-name="Nacute" horiz-adv-x="729" unicode="Ń" d="M554 887l-146 -115h-108l133 115h121zM647 735v-748h-4l-459 507v-494h-102v748h4l459 -506v493h102z"/>
<glyph glyph-name="nacute" horiz-adv-x="583" unicode="ń" d="M493 707l-155 -131h-99l138 131h116zM329 512q89 0 139.5 -58.5t50.5 -156.5v-297h-98v291q0 57 -31.5 92.5t-84.5 35.5q-74 0 -130 -80v-339h-98v502h89l4 -61q56 71 159 71z"/>
<glyph glyph-name="Ncommaaccent" horiz-adv-x="729" unicode="Ņ" d="M363 -51q30 0 49.5 -19.5t19.5 -49.5q0 -24 -12 -40l-78 -137h-4v242q11 4 25 4zM647 735v-748h-4l-459 507v-494h-102v748h4l459 -506v493h102z"/>
<glyph glyph-name="ncommaaccent" horiz-adv-x="583" unicode="ņ" d="M277 -51q30 0 49.5 -19.5t19.5 -49.5q0 -24 -12 -40l-78 -137h-4v242q11 4 25 4zM329 512q89 0 139.5 -58.5t50.5 -156.5v-297h-98v291q0 57 -31.5 92.5t-84.5 35.5q-74 0 -130 -80v-339h-98v502h89l4 -61q56 71 159 71z"/>
<glyph glyph-name="Ncaron" horiz-adv-x="729" unicode="Ň" d="M523 907l-159 -144l-159 144h91l68 -60l68 60h91zM647 735v-748h-4l-459 507v-494h-102v748h4l459 -506v493h102z"/>
<glyph glyph-name="ncaron" horiz-adv-x="583" unicode="ň" d="M451 737l-154 -167l-155 167h89l66 -65l65 65h89zM329 512q89 0 139.5 -58.5t50.5 -156.5v-297h-98v291q0 57 -31.5 92.5t-84.5 35.5q-74 0 -130 -80v-339h-98v502h89l4 -61q56 71 159 71z"/>
<glyph glyph-name="Eng" horiz-adv-x="729" unicode="Ŋ" d="M647 735v-752q0 -102 -61.5 -162.5t-163.5 -60.5v101q58 0 90.5 33.5t32.5 95.5v105l-361 399v-494h-102v748h4l459 -506v493h102z"/>
<glyph glyph-name="eng" horiz-adv-x="583" unicode="ŋ" d="M329 512q89 0 139.5 -58.5t50.5 -156.5v-354q0 -79 -53.5 -131t-134.5 -52v91q40 0 65 23t25 62v355q0 57 -31.5 92.5t-84.5 35.5q-74 0 -130 -80v-339h-98v502h89l4 -61q56 71 159 71z"/>
<glyph glyph-name="Omacron" horiz-adv-x="806" unicode="Ō" d="M533 867v-69h-260v69h260zM403 654q-117 0 -192 -81t-75 -206t75 -205.5t192 -80.5t192 80.5t75 205.5t-75 206t-192 81zM403 748q160 0 265.5 -108.5t105.5 -272.5q0 -165 -105.5 -272.5t-265.5 -107.5q-161 0 -265.5 107.5t-104.5 272.5q0 164 105 272.5t265 108.5z "/>
<glyph glyph-name="omacron" d="M417 665v-68h-260v68h260zM287 425q-69 0 -113.5 -49.5t-44.5 -125.5q0 -75 44.5 -124t113.5 -49t114 49t45 124q0 76 -45 125.5t-114 49.5zM287 512q112 0 185 -74.5t73 -187.5t-73 -186.5t-185 -73.5t-184.5 73.5t-72.5 186.5t72.5 187.5t184.5 74.5z" unicode="ō"/>
<glyph glyph-name="Obreve" horiz-adv-x="806" unicode="Ŏ" d="M555 927q0 -63 -43.5 -104t-108.5 -41q-66 0 -109.5 41t-43.5 104h71q0 -32 23 -55t59 -23t58.5 23t22.5 55h71zM403 654q-117 0 -192 -81t-75 -206t75 -205.5t192 -80.5t192 80.5t75 205.5t-75 206t-192 81zM403 748q160 0 265.5 -108.5t105.5 -272.5 q0 -165 -105.5 -272.5t-265.5 -107.5q-161 0 -265.5 107.5t-104.5 272.5q0 164 105 272.5t265 108.5z"/>
<glyph glyph-name="obreve" d="M439 724q0 -64 -43.5 -106.5t-108.5 -42.5t-109 42.5t-44 106.5h72q0 -35 22.5 -58t58.5 -23q35 0 57.5 23t22.5 58h72zM287 425q-69 0 -113.5 -49.5t-44.5 -125.5q0 -75 44.5 -124t113.5 -49t114 49t45 124q0 76 -45 125.5t-114 49.5zM287 512q112 0 185 -74.5 t73 -187.5t-73 -186.5t-185 -73.5t-184.5 73.5t-72.5 186.5t72.5 187.5t184.5 74.5z" unicode="ŏ"/>
<glyph glyph-name="Ohungarumlaut" horiz-adv-x="806" unicode="Ő" d="M619 903l-98 -119h-85l96 119h87zM457 903l-98 -119h-85l96 119h87zM403 654q-117 0 -192 -81t-75 -206t75 -205.5t192 -80.5t192 80.5t75 205.5t-75 206t-192 81zM403 748q160 0 265.5 -108.5t105.5 -272.5q0 -165 -105.5 -272.5t-265.5 -107.5q-161 0 -265.5 107.5 t-104.5 272.5q0 164 105 272.5t265 108.5z"/>
<glyph glyph-name="ohungarumlaut" d="M510 715l-106 -144h-88l107 144h87zM342 715l-107 -144h-87l107 144h87zM287 425q-69 0 -113.5 -49.5t-44.5 -125.5q0 -75 44.5 -124t113.5 -49t114 49t45 124q0 76 -45 125.5t-114 49.5zM287 512q112 0 185 -74.5t73 -187.5t-73 -186.5t-185 -73.5t-184.5 73.5 t-72.5 186.5t72.5 187.5t184.5 74.5z" unicode="ő"/>
<glyph glyph-name="OE" horiz-adv-x="1161" unicode="Œ" d="M403 654q-117 0 -192 -81t-75 -206t75 -205.5t192 -80.5t192 80.5t75 205.5t-75 206t-192 81zM1126 735v-94h-353v-223h310v-91h-310v-233h361v-94h-463v113q-102 -126 -268 -126q-161 0 -265.5 107.5t-104.5 272.5q0 164 105 272.5t265 108.5q165 0 268 -127v114h455z "/>
<glyph glyph-name="oe" horiz-adv-x="950" unicode="œ" d="M690 428q-61 0 -99 -36t-42 -96h271q-2 60 -36 96t-94 36zM287 425q-69 0 -113.5 -49.5t-44.5 -125.5q0 -75 44.5 -124t113.5 -49t113.5 49t44.5 124q0 76 -44.5 125.5t-113.5 49.5zM690 512q108 0 167.5 -73t59.5 -184v-39h-368q2 -69 41.5 -105.5t110.5 -36.5 q90 0 136 64l68 -57q-74 -91 -204 -91q-139 0 -206 101q-74 -101 -208 -101q-112 0 -184.5 73.5t-72.5 186.5t72.5 187.5t184.5 74.5q65 0 119 -27.5t89 -75.5q69 103 195 103z"/>
<glyph glyph-name="Racute" horiz-adv-x="632" unicode="Ŕ" d="M496 887l-146 -115h-108l133 115h121zM315 645h-133v-276h133q77 0 121 35.5t44 102.5q0 66 -44.5 102t-120.5 36zM324 735q113 0 186 -60.5t73 -167.5q0 -78 -40 -132t-109 -79l184 -296h-120l-172 279h-144v-279h-102v735h244z"/>
<glyph glyph-name="racute" horiz-adv-x="334" unicode="ŕ" d="M407 707l-155 -131h-99l138 131h116zM320 512v-98h-9q-78 0 -136 -84v-330h-98v502h89l5 -68q49 78 149 78z"/>
<glyph glyph-name="Rcommaaccent" horiz-adv-x="632" unicode="Ŗ" d="M300 -51q30 0 49.5 -19.5t19.5 -49.5q0 -24 -12 -40l-78 -137h-4v242q11 4 25 4zM315 645h-133v-276h133q77 0 121 35.5t44 102.5q0 66 -44.5 102t-120.5 36zM324 735q113 0 186 -60.5t73 -167.5q0 -78 -40 -132t-109 -79l184 -296h-120l-172 279h-144v-279h-102v735h244 z"/>
<glyph glyph-name="rcommaaccent" horiz-adv-x="334" unicode="ŗ" d="M126 -51q30 0 49.5 -19.5t19.5 -49.5q0 -24 -12 -40l-78 -137h-4v242q11 4 25 4zM320 512v-98h-9q-78 0 -136 -84v-330h-98v502h89l5 -68q49 78 149 78z"/>
<glyph glyph-name="Rcaron" horiz-adv-x="632" unicode="Ř" d="M464 907l-159 -144l-159 144h91l68 -60l68 60h91zM315 645h-133v-276h133q77 0 121 35.5t44 102.5q0 66 -44.5 102t-120.5 36zM324 735q113 0 186 -60.5t73 -167.5q0 -78 -40 -132t-109 -79l184 -296h-120l-172 279h-144v-279h-102v735h244z"/>
<glyph glyph-name="rcaron" horiz-adv-x="334" unicode="ř" d="M365 737l-154 -167l-155 167h89l66 -65l65 65h89zM320 512v-98h-9q-78 0 -136 -84v-330h-98v502h89l5 -68q49 78 149 78z"/>
<glyph glyph-name="Sacute" horiz-adv-x="585" unicode="Ś" d="M479 891l-146 -115h-108l133 115h121zM285 748q141 0 239 -78l-54 -84q-82 68 -186 68q-63 0 -100.5 -29t-37.5 -86q0 -48 35.5 -72t130.5 -44q133 -29 189 -78.5t56 -134.5q0 -100 -71 -161.5t-191 -61.5q-161 0 -269 94l57 85q39 -39 97 -62t118 -23q71 0 114 31.5 t43 89.5q0 48 -39 75t-133 47q-132 29 -185.5 78t-53.5 133q0 97 66 155t175 58z"/>
<glyph glyph-name="sacute" horiz-adv-x="457" unicode="ś" d="M428 707l-155 -131h-99l138 131h116zM239 512q100 0 167 -55l-42 -76q-57 44 -125 44q-92 0 -92 -58q0 -29 21.5 -41.5t83.5 -27.5q88 -21 129 -58t41 -94q0 -71 -54.5 -113.5t-146.5 -42.5q-117 0 -191 61l45 78q60 -52 147 -52q101 0 101 63q0 30 -23.5 45t-83.5 29 q-89 20 -128 54t-39 93q0 71 51 111t139 40z"/>
<glyph glyph-name="Scircumflex" horiz-adv-x="585" unicode="Ŝ" d="M288 920l159 -145h-91l-68 61l-68 -61h-91zM285 748q141 0 239 -78l-54 -84q-82 68 -186 68q-63 0 -100.5 -29t-37.5 -86q0 -48 35.5 -72t130.5 -44q133 -29 189 -78.5t56 -134.5q0 -100 -71 -161.5t-191 -61.5q-161 0 -269 94l57 85q39 -39 97 -62t118 -23 q71 0 114 31.5t43 89.5q0 48 -39 75t-133 47q-132 29 -185.5 78t-53.5 133q0 97 66 155t175 58z"/>
<glyph glyph-name="scircumflex" horiz-adv-x="457" unicode="ŝ" d="M232 743l154 -167h-89l-65 65l-66 -65h-89zM239 512q100 0 167 -55l-42 -76q-57 44 -125 44q-92 0 -92 -58q0 -29 21.5 -41.5t83.5 -27.5q88 -21 129 -58t41 -94q0 -71 -54.5 -113.5t-146.5 -42.5q-117 0 -191 61l45 78q60 -52 147 -52q101 0 101 63q0 30 -23.5 45 t-83.5 29q-89 20 -128 54t-39 93q0 71 51 111t139 40z"/>
<glyph glyph-name="Scedilla" horiz-adv-x="585" unicode="Ş" d="M285 748q141 0 239 -78l-54 -84q-82 68 -186 68q-63 0 -100.5 -29t-37.5 -86q0 -48 35.5 -72t130.5 -44q133 -29 189 -78.5t56 -134.5q0 -94 -63 -154.5t-171 -67.5l-7 -44q42 -4 66 -28.5t24 -65.5q0 -46 -29 -74t-80 -28q-64 0 -99 40l39 45q24 -28 57 -28q44 0 44 42 q0 38 -41 42q-6 1 -12 1q-19 0 -36 -8l-3 4l18 102q-141 9 -238 93l57 85q39 -39 97 -62t118 -23q71 0 114 31.5t43 89.5q0 48 -39 75t-133 47q-132 29 -185.5 78t-53.5 133q0 97 66 155t175 58z"/>
<glyph glyph-name="scedilla" horiz-adv-x="457" unicode="ş" d="M239 512q100 0 167 -55l-42 -76q-57 44 -125 44q-92 0 -92 -58q0 -29 21.5 -41.5t83.5 -27.5q88 -21 129 -58t41 -94q0 -65 -45.5 -106t-125.5 -48l-7 -48q42 -4 66 -28.5t24 -65.5q0 -46 -29 -74t-80 -28q-64 0 -99 40l39 45q24 -28 57 -28q44 0 44 42q0 38 -41 42 q-6 1 -12 1q-19 0 -36 -8l-3 4l18 105q-100 8 -162 60l45 78q60 -52 147 -52q101 0 101 63q0 30 -23.5 45t-83.5 29q-89 20 -128 54t-39 93q0 71 51 111t139 40z"/>
<glyph glyph-name="Scaron" horiz-adv-x="585" unicode="Š" d="M447 911l-159 -144l-159 144h91l68 -60l68 60h91zM285 748q141 0 239 -78l-54 -84q-82 68 -186 68q-63 0 -100.5 -29t-37.5 -86q0 -48 35.5 -72t130.5 -44q133 -29 189 -78.5t56 -134.5q0 -100 -71 -161.5t-191 -61.5q-161 0 -269 94l57 85q39 -39 97 -62t118 -23 q71 0 114 31.5t43 89.5q0 48 -39 75t-133 47q-132 29 -185.5 78t-53.5 133q0 97 66 155t175 58z"/>
<glyph glyph-name="scaron" horiz-adv-x="457" unicode="š" d="M386 737l-154 -167l-155 167h89l66 -65l65 65h89zM239 512q100 0 167 -55l-42 -76q-57 44 -125 44q-92 0 -92 -58q0 -29 21.5 -41.5t83.5 -27.5q88 -21 129 -58t41 -94q0 -71 -54.5 -113.5t-146.5 -42.5q-117 0 -191 61l45 78q60 -52 147 -52q101 0 101 63q0 30 -23.5 45 t-83.5 29q-89 20 -128 54t-39 93q0 71 51 111t139 40z"/>
<glyph glyph-name="Tcommaaccent" horiz-adv-x="649" unicode="Ţ" d="M304 -51q30 0 49.5 -19.5t19.5 -49.5q0 -24 -12 -40l-78 -137h-4v242q11 4 25 4zM633 735v-91h-258v-644h-102v644h-257v91h617z"/>
<glyph glyph-name="tcommaaccent" horiz-adv-x="398" unicode="ţ" d="M181 -51q30 0 49.5 -19.5t19.5 -49.5q0 -24 -12 -40l-78 -137h-4v242q11 4 25 4zM208 672v-170h158v-84h-158v-249q0 -43 23.5 -66.5t62.5 -23.5q45 0 72 16l28 -77q-45 -28 -108 -28q-82 0 -129 46t-47 132v250h-98v84h98v170h98z"/>
<glyph glyph-name="Tcaron" horiz-adv-x="649" unicode="Ť" d="M482 907l-159 -144l-159 144h91l68 -60l68 60h91zM633 735v-91h-258v-644h-102v644h-257v91h617z"/>
<glyph glyph-name="tcaron" horiz-adv-x="557" unicode="ť" d="M447 752q30 0 49.5 -19.5t19.5 -49.5q0 -20 -12 -41l-78 -159h-4v265q11 4 25 4zM208 672v-170h158v-84h-158v-249q0 -43 23.5 -66.5t62.5 -23.5q45 0 72 16l28 -77q-45 -28 -108 -28q-82 0 -129 46t-47 132v250h-98v84h98v170h98z"/>
<glyph glyph-name="Tbar" horiz-adv-x="649" unicode="Ŧ" d="M633 735v-91h-258v-256h150v-69h-150v-319h-102v319h-149v69h149v256h-257v91h617z"/>
<glyph glyph-name="tbar" horiz-adv-x="398" unicode="ŧ" d="M208 672v-170h158v-69h-158v-107h158v-68h-158v-89q0 -43 25 -66.5t68 -23.5q45 0 69 14l21 -79q-38 -24 -100 -24q-84 0 -132.5 46t-48.5 132v90h-98v68h98v107h-98v69h98v170h98z"/>
<glyph glyph-name="Utilde" horiz-adv-x="689" unicode="Ũ" d="M283 915q29 0 49.5 -12t29.5 -27t22 -27t28 -12q32 0 32 72h64q0 -68 -28.5 -103.5t-73.5 -35.5q-29 0 -49 12t-28 27t-20.5 27t-28.5 12q-34 0 -34 -72h-65q0 70 28.5 104.5t73.5 34.5zM616 735v-476q0 -126 -70 -199t-201 -73q-132 0 -202 73t-70 199v476h102v-470 q0 -85 43.5 -134.5t126.5 -49.5q82 0 125.5 49.5t43.5 134.5v470h102z"/>
<glyph glyph-name="utilde" d="M219 717q29 0 49.5 -12t29.5 -27t22 -27t28 -12q32 0 32 72h64q0 -68 -28.5 -103.5t-73.5 -35.5q-29 0 -49 12t-28 27t-20.5 27t-28.5 12q-34 0 -34 -72h-65q0 70 28.5 104.5t73.5 34.5zM498 502v-502h-89l-4 61q-56 -71 -161 -71q-85 0 -132 57.5t-47 155.5v299h98v-294 q0 -56 28.5 -90.5t77.5 -34.5q43 0 73.5 21t57.5 59v339h98z" unicode="ũ"/>
<glyph glyph-name="Umacron" horiz-adv-x="689" unicode="Ū" d="M474 857v-69h-260v69h260zM616 735v-476q0 -126 -70 -199t-201 -73q-132 0 -202 73t-70 199v476h102v-470q0 -85 43.5 -134.5t126.5 -49.5q82 0 125.5 49.5t43.5 134.5v470h102z"/>
<glyph glyph-name="umacron" d="M410 665v-68h-260v68h260zM498 502v-502h-89l-4 61q-56 -71 -161 -71q-85 0 -132 57.5t-47 155.5v299h98v-294q0 -56 28.5 -90.5t77.5 -34.5q43 0 73.5 21t57.5 59v339h98z" unicode="ū"/>
<glyph glyph-name="Ubreve" horiz-adv-x="689" unicode="Ŭ" d="M496 917q0 -63 -43.5 -104t-108.5 -41q-66 0 -109.5 41t-43.5 104h71q0 -32 23 -55t59 -23t58.5 23t22.5 55h71zM616 735v-476q0 -126 -70 -199t-201 -73q-132 0 -202 73t-70 199v476h102v-470q0 -85 43.5 -134.5t126.5 -49.5q82 0 125.5 49.5t43.5 134.5v470h102z"/>
<glyph glyph-name="ubreve" d="M433 724q0 -64 -43.5 -106.5t-108.5 -42.5t-109 42.5t-44 106.5h72q0 -35 22.5 -58t58.5 -23q35 0 57.5 23t22.5 58h72zM498 502v-502h-89l-4 61q-56 -71 -161 -71q-85 0 -132 57.5t-47 155.5v299h98v-294q0 -56 28.5 -90.5t77.5 -34.5q43 0 73.5 21t57.5 59v339h98z" unicode="ŭ"/>
<glyph glyph-name="Uring" horiz-adv-x="689" unicode="Ů" d="M345 931q-22 0 -37 -15.5t-15 -37.5q0 -23 15 -37.5t37 -14.5t37 14.5t15 37.5q0 22 -15 37.5t-37 15.5zM345 986q47 0 78 -31t31 -77q0 -47 -31 -77.5t-78 -30.5t-78.5 30.5t-31.5 77.5q0 46 31.5 77t78.5 31zM616 735v-476q0 -126 -70 -199t-201 -73q-132 0 -202 73 t-70 199v476h102v-470q0 -85 43.5 -134.5t126.5 -49.5q82 0 125.5 49.5t43.5 134.5v470h102z"/>
<glyph glyph-name="uring" d="M281 731q-22 0 -37 -15.5t-15 -37.5t15 -36.5t37 -14.5t37 14.5t15 36.5t-15 37.5t-37 15.5zM281 787q47 0 78 -31.5t31 -77.5t-31 -76.5t-78 -30.5t-78.5 30.5t-31.5 76.5q0 47 31.5 78t78.5 31zM498 502v-502h-89l-4 61q-56 -71 -161 -71q-85 0 -132 57.5t-47 155.5 v299h98v-294q0 -56 28.5 -90.5t77.5 -34.5q43 0 73.5 21t57.5 59v339h98z" unicode="ů"/>
<glyph glyph-name="Uhungarumlaut" horiz-adv-x="689" unicode="Ű" d="M561 893l-98 -119h-85l96 119h87zM399 893l-98 -119h-85l96 119h87zM616 735v-476q0 -126 -70 -199t-201 -73q-132 0 -202 73t-70 199v476h102v-470q0 -85 43.5 -134.5t126.5 -49.5q82 0 125.5 49.5t43.5 134.5v470h102z"/>
<glyph glyph-name="uhungarumlaut" d="M504 715l-106 -144h-88l107 144h87zM336 715l-107 -144h-87l107 144h87zM498 502v-502h-89l-4 61q-56 -71 -161 -71q-85 0 -132 57.5t-47 155.5v299h98v-294q0 -56 28.5 -90.5t77.5 -34.5q43 0 73.5 21t57.5 59v339h98z" unicode="ű"/>
<glyph glyph-name="Uogonek" horiz-adv-x="689" unicode="Ų" d="M616 735v-476q0 -98 -42.5 -164.5t-123.5 -92.5q-32 -19 -32 -58q0 -32 19.5 -49.5t49.5 -17.5q18 0 34 8l21 -57q-21 -10 -57 -10q-58 0 -95.5 33.5t-37.5 92.5q0 26 7 43h-14q-132 0 -202 73t-70 199v476h102v-470q0 -85 43.5 -134.5t126.5 -49.5q82 0 125.5 49.5 t43.5 134.5v470h102z"/>
<glyph glyph-name="uogonek" d="M498 502v-502h-13q-45 -18 -45 -64q0 -32 19.5 -49.5t49.5 -17.5q18 0 34 8l21 -57q-21 -10 -57 -10q-58 0 -95.5 33.5t-37.5 92.5q0 51 34 82l-3 43q-56 -71 -161 -71q-85 0 -132 57.5t-47 155.5v299h98v-294q0 -56 28.5 -90.5t77.5 -34.5q43 0 73.5 21t57.5 59v339h98z " unicode="ų"/>
<glyph glyph-name="Wcircumflex" horiz-adv-x="978" unicode="Ŵ" d="M488 916l159 -145h-91l-68 61l-68 -61h-91zM968 735l-288 -747h-4l-187 479l-187 -479h-4l-288 747h113l177 -478l187 478h4l187 -478l177 478h113z"/>
<glyph glyph-name="wcircumflex" horiz-adv-x="764" unicode="ŵ" d="M382 743l154 -167h-89l-65 65l-66 -65h-89zM753 502l-223 -512h-4l-144 298l-145 -298h-4l-223 512h110l122 -291l138 291h4l138 -291l122 291h109z"/>
<glyph glyph-name="Ycircumflex" horiz-adv-x="660" unicode="Ŷ" d="M329 916l159 -145h-91l-68 61l-68 -61h-91zM653 734l-272 -423v-311h-102v309l-272 425h119l204 -322l203 322h120z"/>
<glyph glyph-name="ycircumflex" horiz-adv-x="552" unicode="ŷ" d="M268 743l154 -167h-89l-65 65l-66 -65h-89zM537 502l-367 -732h-112l165 312l-207 420h109l151 -310l151 310h110z"/>
<glyph glyph-name="Ydieresis" horiz-adv-x="660" unicode="Ÿ" d="M415 883q23 0 39 -15.5t16 -38.5t-16 -38.5t-39 -15.5t-38.5 15.5t-15.5 38.5t15.5 38.5t38.5 15.5zM244 883q24 0 39.5 -15.5t15.5 -38.5t-15.5 -38.5t-39.5 -15.5q-23 0 -38.5 15.5t-15.5 38.5t15.5 38.5t38.5 15.5zM653 734l-272 -423v-311h-102v309l-272 425h119 l204 -322l203 322h120z"/>
<glyph glyph-name="Zacute" horiz-adv-x="580" unicode="Ź" d="M479 887l-146 -115h-108l133 115h121zM542 735v-4l-355 -638h366v-93h-528v4l358 638h-342v93h501z"/>
<glyph glyph-name="zacute" horiz-adv-x="453" unicode="ź" d="M422 707l-155 -131h-99l138 131h116zM429 502v-4l-250 -414h249v-84h-405v4l249 414h-234v84h391z"/>
<glyph glyph-name="Zdotaccent" horiz-adv-x="580" unicode="Ż" d="M288 890q26 0 43 -17t17 -43t-17 -42.5t-43 -16.5t-42.5 16.5t-16.5 42.5t16.5 43t42.5 17zM542 735v-4l-355 -638h366v-93h-528v4l358 638h-342v93h501z"/>
<glyph glyph-name="zdotaccent" horiz-adv-x="453" unicode="ż" d="M225 722q28 0 46 -18t18 -46t-18 -45.5t-46 -17.5t-46 17.5t-18 45.5t18 46t46 18zM429 502v-4l-250 -414h249v-84h-405v4l249 414h-234v84h391z"/>
<glyph glyph-name="Zcaron" horiz-adv-x="580" unicode="Ž" d="M447 907l-159 -144l-159 144h91l68 -60l68 60h91zM542 735v-4l-355 -638h366v-93h-528v4l358 638h-342v93h501z"/>
<glyph glyph-name="zcaron" horiz-adv-x="453" unicode="ž" d="M380 737l-154 -167l-155 167h89l66 -65l65 65h89zM429 502v-4l-250 -414h249v-84h-405v4l249 414h-234v84h391z"/>
<glyph glyph-name="florin" horiz-adv-x="378" unicode="ƒ" d="M312 754q66 0 110 -36l-38 -78q-27 27 -67 27q-36 0 -57 -25t-26 -70l-8 -70h112l-9 -84h-112l-54 -491q-8 -74 -55.5 -120.5t-120.5 -46.5q-67 0 -110 35l38 78q26 -26 67 -26q73 0 83 95l52 476h-75l9 84h76l9 84q8 75 55 121.5t121 46.5z"/>
<glyph glyph-name="Aringacute" horiz-adv-x="698" unicode="Ǻ" d="M349 927q-22 0 -37 -15.5t-15 -37.5t15 -36.5t37 -14.5t37 14.5t15 36.5t-15 37.5t-37 15.5zM349 523l-127 -284h254zM516 1075l-121 -102q29 -13 46 -39.5t17 -59.5q0 -46 -31 -76.5t-78 -30.5t-78.5 30.5t-31.5 76.5q0 40 24 70h-1l138 131h116zM351 748l338 -748h-109 l-66 150h-330l-66 -150h-109l338 748h4z"/>
<glyph glyph-name="aringacute" horiz-adv-x="593" unicode="ǻ" d="M288 718q-22 0 -37 -15.5t-15 -37.5t15 -36.5t37 -14.5t37 14.5t15 36.5t-15 37.5t-37 15.5zM459 858l-121 -96q59 -29 59 -97q0 -46 -31 -76.5t-78 -30.5t-78.5 30.5t-31.5 76.5q0 45 31 78h-4l133 115h121zM280 425q-66 0 -108.5 -48t-42.5 -126t42.5 -126t108.5 -48 q86 0 138 85v178q-52 85 -138 85zM262 512q107 0 161 -71l4 61h89v-502h-89l-4 61q-54 -71 -161 -71q-103 0 -167.5 73.5t-64.5 187.5t64.5 187.5t167.5 73.5z"/>
<glyph glyph-name="AEacute" horiz-adv-x="870" unicode="Ǽ" d="M693 887l-146 -115h-108l133 115h121zM349 553l-130 -318h260zM831 735v-94h-410l93 -225h274v-87h-238l98 -235h191v-94h-264l-64 155h-325l-63 -155h-114l319 735h503z"/>
<glyph glyph-name="aeacute" horiz-adv-x="944" unicode="ǽ" d="M666 707l-155 -131h-99l138 131h116zM280 425q-66 0 -108.5 -48t-42.5 -126t42.5 -126t108.5 -48q86 0 138 85v178q-52 85 -138 85zM676 428q-58 0 -97.5 -33t-45.5 -99h281q-3 60 -39 96t-99 36zM680 512q108 0 169.5 -72t61.5 -188v-36h-377q11 -142 156 -142 q90 0 141 64l68 -57q-76 -91 -206 -91q-127 0 -179 71l-4 -61h-83l-4 61q-54 -71 -161 -71q-103 0 -167.5 73.5t-64.5 187.5t64.5 187.5t167.5 73.5q107 0 161 -71l4 61h84l4 -61q66 71 165 71z"/>
<glyph glyph-name="Oslashacute" horiz-adv-x="806" unicode="Ǿ" d="M592 897l-146 -115h-108l133 115h121zM670 367q0 145 -98 227l-271 -494q45 -19 102 -19q117 0 192 80.5t75 205.5zM403 654q-117 0 -192 -81t-75 -206q0 -146 97 -227l272 494q-48 20 -102 20zM403 748q79 0 148 -29l53 96h89l-73 -134q72 -52 113 -133.5t41 -180.5 q0 -165 -105.5 -272.5t-265.5 -107.5q-80 0 -148 28l-52 -95h-90l73 133q-72 51 -112.5 132.5t-40.5 181.5q0 164 105 272.5t265 108.5z"/>
<glyph glyph-name="oslashacute" d="M469 707l-155 -131h-99l138 131h116zM450 250q0 85 -55 137l-165 -305q24 -10 57 -10q71 0 117 50.5t46 127.5zM287 430q-71 0 -117 -51t-46 -129q0 -87 56 -138l166 307q-28 11 -59 11zM287 512q54 0 99 -18l43 78h66l-57 -106q50 -35 78.5 -91.5t28.5 -124.5 q0 -113 -73 -186.5t-185 -73.5q-48 0 -97 17l-42 -77h-67l56 104q-50 34 -78.5 90.5t-28.5 125.5q0 113 72.5 187.5t184.5 74.5z" unicode="ǿ"/>
<glyph glyph-name="Scommaaccent" horiz-adv-x="585" unicode="Ș" d="M287 -51q30 0 49.5 -19.5t19.5 -49.5q0 -24 -12 -40l-78 -137h-4v242q11 4 25 4zM285 748q141 0 239 -78l-54 -84q-82 68 -186 68q-63 0 -100.5 -29t-37.5 -86q0 -48 35.5 -72t130.5 -44q133 -29 189 -78.5t56 -134.5q0 -100 -71 -161.5t-191 -61.5q-161 0 -269 94l57 85 q39 -39 97 -62t118 -23q71 0 114 31.5t43 89.5q0 48 -39 75t-133 47q-132 29 -185.5 78t-53.5 133q0 97 66 155t175 58z"/>
<glyph glyph-name="scommaaccent" horiz-adv-x="457" unicode="ș" d="M205 -51q30 0 49.5 -19.5t19.5 -49.5q0 -24 -12 -40l-78 -137h-4v242q11 4 25 4zM239 512q100 0 167 -55l-42 -76q-57 44 -125 44q-92 0 -92 -58q0 -29 21.5 -41.5t83.5 -27.5q88 -21 129 -58t41 -94q0 -71 -54.5 -113.5t-146.5 -42.5q-117 0 -191 61l45 78 q60 -52 147 -52q101 0 101 63q0 30 -23.5 45t-83.5 29q-89 20 -128 54t-39 93q0 71 51 111t139 40z"/>
<glyph glyph-name="circumflex" horiz-adv-x="350" unicode="ˆ" d="M175 743l154 -167h-89l-65 65l-66 -65h-89z"/>
<glyph glyph-name="caron" horiz-adv-x="350" unicode="ˇ" d="M329 737l-154 -167l-155 167h89l66 -65l65 65h89z"/>
<glyph glyph-name="breve" horiz-adv-x="345" unicode="˘" d="M325 724q0 -64 -43.5 -106.5t-108.5 -42.5t-109 42.5t-44 106.5h72q0 -35 22.5 -58t58.5 -23q35 0 57.5 23t22.5 58h72z"/>
<glyph glyph-name="dotaccent" horiz-adv-x="168" unicode="˙" d="M84 722q28 0 46 -18t18 -46t-18 -45.5t-46 -17.5t-46 17.5t-18 45.5t18 46t46 18z"/>
<glyph glyph-name="ring" horiz-adv-x="260" unicode="˚" d="M130 731q-22 0 -37 -15.5t-15 -37.5t15 -36.5t37 -14.5t37 14.5t15 36.5t-15 37.5t-37 15.5zM130 787q46 0 77.5 -31.5t31.5 -77.5t-31 -76.5t-78 -30.5t-78.5 30.5t-31.5 76.5q0 47 31.5 78t78.5 31z"/>
<glyph glyph-name="ogonek" horiz-adv-x="230" unicode="˛" d="M110 49l27 -49q-45 -18 -45 -64q0 -32 19.5 -49.5t49.5 -17.5q18 0 34 8l21 -57q-21 -10 -57 -10q-58 0 -95.5 33.5t-37.5 92.5q0 79 84 113z"/>
<glyph glyph-name="tilde" horiz-adv-x="368" unicode="˜" d="M122 717q29 0 49.5 -12t29.5 -27t22 -27t28 -12q32 0 32 72h64q0 -68 -28.5 -103.5t-73.5 -35.5q-29 0 -49 12t-28 27t-20.5 27t-28.5 12q-34 0 -34 -72h-65q0 70 28.5 104.5t73.5 34.5z"/>
<glyph glyph-name="hungarumlaut" horiz-adv-x="389" unicode="˝" d="M409 715l-106 -144h-88l107 144h87zM241 715l-107 -144h-87l107 144h87z"/>
<glyph glyph-name="uni03A9" horiz-adv-x="858" unicode="Ω" d="M433 749q147 0 240.5 -97t93.5 -246q0 -171 -127 -300h182v-106h-337v101q172 124 172 301q0 108 -60 174.5t-164 66.5q-103 0 -163.5 -67t-60.5 -174q0 -177 172 -301v-101h-336v106h182q-127 129 -127 300q0 149 93 246t240 97z"/>
<glyph glyph-name="pi" horiz-adv-x="711" unicode="π" d="M622 576l75 -45q-22 -59 -59 -89t-111 -30h-14l-33 -253q-2 -14 -2 -25q0 -19 7 -32.5t33 -13.5q37 0 67 25l35 -69q-64 -49 -139 -49q-62 0 -78 31t-16 72q0 17 2 38l36 276h-115l-33 -247q-13 -94 -45 -165h-99q44 91 56 181l32 231h-27q-72 0 -128 -63l-46 68 q46 45 88 64.5t118 19.5h253q67 0 94.5 16t48.5 59z"/>
<glyph glyph-name="Wgrave" horiz-adv-x="978" unicode="Ẁ" d="M410 887l133 -115h-108l-146 115h121zM968 735l-288 -747h-4l-187 479l-187 -479h-4l-288 747h113l177 -478l187 478h4l187 -478l177 478h113z"/>
<glyph glyph-name="wgrave" horiz-adv-x="764" unicode="ẁ" d="M297 707l138 -131h-99l-155 131h116zM753 502l-223 -512h-4l-144 298l-145 -298h-4l-223 512h110l122 -291l138 291h4l138 -291l122 291h109z"/>
<glyph glyph-name="Wacute" horiz-adv-x="978" unicode="Ẃ" d="M679 887l-146 -115h-108l133 115h121zM968 735l-288 -747h-4l-187 479l-187 -479h-4l-288 747h113l177 -478l187 478h4l187 -478l177 478h113z"/>
<glyph glyph-name="wacute" horiz-adv-x="764" unicode="ẃ" d="M577 707l-155 -131h-99l138 131h116zM753 502l-223 -512h-4l-144 298l-145 -298h-4l-223 512h110l122 -291l138 291h4l138 -291l122 291h109z"/>
<glyph glyph-name="Wdieresis" horiz-adv-x="978" unicode="Ẅ" d="M574 883q23 0 39 -15.5t16 -38.5t-16 -38.5t-39 -15.5t-38.5 15.5t-15.5 38.5t15.5 38.5t38.5 15.5zM403 883q24 0 39.5 -15.5t15.5 -38.5t-15.5 -38.5t-39.5 -15.5q-23 0 -38.5 15.5t-15.5 38.5t15.5 38.5t38.5 15.5zM968 735l-288 -747h-4l-187 479l-187 -479h-4 l-288 747h113l177 -478l187 478h4l187 -478l177 478h113z"/>
<glyph glyph-name="wdieresis" horiz-adv-x="764" unicode="ẅ" d="M467 695q23 0 39 -15.5t16 -38.5t-16 -38.5t-39 -15.5t-38.5 15.5t-15.5 38.5t15.5 38.5t38.5 15.5zM296 695q24 0 39.5 -15.5t15.5 -38.5t-15.5 -38.5t-39.5 -15.5q-23 0 -38.5 15.5t-15.5 38.5t15.5 38.5t38.5 15.5zM753 502l-223 -512h-4l-144 298l-145 -298h-4 l-223 512h110l122 -291l138 291h4l138 -291l122 291h109z"/>
<glyph glyph-name="Ygrave" horiz-adv-x="660" unicode="Ỳ" d="M251 887l133 -115h-108l-146 115h121zM653 734l-272 -423v-311h-102v309l-272 425h119l204 -322l203 322h120z"/>
<glyph glyph-name="ygrave" horiz-adv-x="552" unicode="ỳ" d="M184 707l138 -131h-99l-155 131h116zM537 502l-367 -732h-112l165 312l-207 420h109l151 -310l151 310h110z"/>
<glyph glyph-name="endash" horiz-adv-x="556" unicode="–" d="M515 304v-91h-475v91h475z"/>
<glyph glyph-name="emdash" horiz-adv-x="800" unicode="—" d="M760 304v-91h-720v91h720z"/>
<glyph glyph-name="quoteleft" horiz-adv-x="185" unicode="‘" d="M134 778v-264q-13 -5 -24 -5q-30 0 -50 20t-20 50q0 20 13 40l77 159h4z"/>
<glyph glyph-name="quoteright" horiz-adv-x="185" unicode="’" d="M75 752q30 0 49.5 -19.5t19.5 -49.5q0 -20 -12 -41l-78 -159h-4v265q11 4 25 4z"/>
<glyph glyph-name="quotesinglbase" horiz-adv-x="185" unicode="‚" d="M75 120q30 0 49.5 -20t19.5 -50q0 -19 -12 -40l-78 -159h-4v264q13 5 25 5z"/>
<glyph glyph-name="quotedblleft" horiz-adv-x="363" unicode="“" d="M312 778v-264q-13 -5 -24 -5q-30 0 -50 20t-20 50q0 20 13 40l77 159h4zM134 778v-264q-13 -5 -24 -5q-30 0 -50 20t-20 50q0 20 13 40l77 159h4z"/>
<glyph glyph-name="quotedblright" horiz-adv-x="363" unicode="”" d="M253 752q30 0 49.5 -19.5t19.5 -49.5q0 -20 -12 -41l-78 -159h-4v265q11 4 25 4zM75 752q30 0 49.5 -19.5t19.5 -49.5q0 -20 -12 -41l-78 -159h-4v265q11 4 25 4z"/>
<glyph glyph-name="quotedblbase" horiz-adv-x="375" unicode="„" d="M265 120q30 0 49.5 -20t19.5 -50q0 -19 -12 -40l-78 -159h-4v264q13 5 25 5zM75 120q30 0 49.5 -20t19.5 -50q0 -19 -12 -40l-78 -159h-4v264q13 5 25 5z"/>
<glyph glyph-name="dagger" horiz-adv-x="492" unicode="†" d="M294 735v-178h169v-89h-169v-468h-97v468h-168v89h168v178h97z"/>
<glyph glyph-name="daggerdbl" horiz-adv-x="492" unicode="‡" d="M295 735v-178h169v-89h-169v-201h168v-89h-168v-178h-97v178h-169v89h169v201h-169v89h169v178h97z"/>
<glyph glyph-name="bullet" horiz-adv-x="295" unicode="•" d="M147 370q49 0 80.5 -31.5t31.5 -80.5q0 -48 -31.5 -79.5t-80.5 -31.5q-48 0 -79.5 31.5t-31.5 79.5q0 49 31.5 80.5t79.5 31.5z"/>
<glyph glyph-name="ellipsis" horiz-adv-x="674" unicode="…" d="M567 128q30 0 49.5 -19t19.5 -50q0 -30 -19.5 -49.5t-49.5 -19.5t-49.5 19.5t-19.5 49.5t19.5 49.5t49.5 19.5zM337 128q30 0 49.5 -19t19.5 -50q0 -30 -19.5 -49.5t-49.5 -19.5t-49.5 19.5t-19.5 49.5t19.5 49.5t49.5 19.5zM107 128q30 0 49.5 -19t19.5 -50 q0 -30 -19.5 -49.5t-49.5 -19.5t-49.5 19.5t-19.5 49.5t19.5 49.5t49.5 19.5z"/>
<glyph glyph-name="perthousand" horiz-adv-x="1280" unicode="‰" d="M1062 284q-45 0 -74 -32t-29 -81q0 -48 29 -79.5t74 -31.5q44 0 73 31.5t29 79.5q0 49 -29 81t-73 32zM1062 356q77 0 127.5 -52.5t50.5 -132.5t-50.5 -131.5t-127.5 -51.5q-78 0 -128.5 51.5t-50.5 131.5t50.5 132.5t128.5 52.5zM659 284q-45 0 -74 -32t-29 -81 q0 -48 29 -79.5t74 -31.5q44 0 73.5 31.5t29.5 79.5q0 49 -29.5 81t-73.5 32zM659 356q77 0 128 -52.5t51 -132.5t-50.5 -131.5t-128.5 -51.5t-128.5 51.5t-50.5 131.5t50.5 132.5t128.5 52.5zM202 675q-45 0 -74 -32t-29 -81q0 -48 29 -79.5t74 -31.5q44 0 73 31.5t29 79.5 q0 49 -29 81t-73 32zM202 748q77 0 127.5 -53t50.5 -133q0 -79 -50.5 -131t-127.5 -52q-78 0 -128.5 51.5t-50.5 131.5t50.5 133t128.5 53zM718 735l-479 -735h-97l479 735h97z"/>
<glyph glyph-name="guilsinglleft" horiz-adv-x="348" unicode="‹" d="M333 458l-202 -202l202 -202h-119l-199 200v4l199 200h119z"/>
<glyph glyph-name="guilsinglright" horiz-adv-x="348" unicode="›" d="M134 458l199 -200v-4l-199 -200h-119l202 202l-202 202h119z"/>
<glyph glyph-name="fraction" horiz-adv-x="207" unicode="⁄" d="M331 734l-364 -734h-91l364 734h91z"/>
<glyph glyph-name="zero.sups" horiz-adv-x="381" unicode="⁰" d="M196 755q-83 0 -83 -151q0 -152 83 -152q40 0 60.5 40.5t20.5 111.5t-20.5 111t-60.5 40zM196 821q73 0 114.5 -58.5t41.5 -158.5t-41.5 -159t-114.5 -59q-74 0 -116 59t-42 159t42 158.5t116 58.5z"/>
<glyph glyph-name="four.sups" horiz-adv-x="366" unicode="⁴" d="M224 639l-94 -122h94v122zM295 822v-304h55v-60h-55v-64h-72v65h-216v2l286 361h2z"/>
<glyph glyph-name="five.sups" horiz-adv-x="351" unicode="⁵" d="M300 813v-66h-165v-102q22 11 48 11q64 0 104.5 -35.5t40.5 -100.5q0 -59 -39.5 -96.5t-104.5 -37.5q-110 0 -145 93l63 31q15 -57 77 -57q32 0 53 20t21 51q0 30 -21 50t-56 20q-38 0 -66 -22l-49 21v220h239z"/>
<glyph glyph-name="six.sups" horiz-adv-x="358" unicode="⁶" d="M183 604q-32 0 -53.5 -22t-21.5 -56t21.5 -55.5t53.5 -21.5q33 0 54.5 21.5t21.5 55.5t-21.5 56t-54.5 22zM285 813l-99 -147q60 -2 103 -41.5t43 -98.5q0 -60 -43.5 -100t-105.5 -40t-105 39.5t-43 100.5q0 48 30 86l136 201h84z"/>
<glyph glyph-name="seven.sups" horiz-adv-x="352" unicode="⁷" d="M338 813v-4l-217 -415h-81l189 351h-196v68h305z"/>
<glyph glyph-name="eight.sups" horiz-adv-x="358" unicode="⁸" d="M181 760q-27 0 -45.5 -17.5t-18.5 -42.5q0 -27 18.5 -43.5t45.5 -16.5q28 0 46.5 16.5t18.5 43.5q0 26 -18.5 43t-46.5 17zM181 580q-32 0 -53.5 -19t-21.5 -48t21.5 -47.5t53.5 -18.5q33 0 55 18.5t22 47.5t-22 48t-55 19zM181 821q55 0 93.5 -33.5t38.5 -84.5 q0 -56 -51 -87q68 -36 68 -101q0 -56 -43.5 -92.5t-105.5 -36.5q-61 0 -104 37t-43 92q0 32 18 58.5t49 41.5q-50 32 -50 88q0 51 38 84.5t92 33.5z"/>
<glyph glyph-name="nine.sups" horiz-adv-x="358" unicode="⁹" d="M184 758q-33 0 -54.5 -21.5t-21.5 -55.5q0 -35 21.5 -56.5t54.5 -21.5q32 0 53.5 21.5t21.5 56.5q0 34 -21.5 55.5t-53.5 21.5zM184 820q62 0 105 -39.5t43 -99.5q0 -50 -30 -86l-136 -201h-84l99 147q-61 1 -103.5 41t-42.5 99q0 60 43.5 99.5t105.5 39.5z"/>
<glyph glyph-name="n.sups" horiz-adv-x="423" unicode="ⁿ" d="M241 748q63 0 98 -41.5t35 -112.5v-206h-81v202q0 37 -19.5 59.5t-52.5 22.5q-48 0 -83 -49v-235h-80v353h72l3 -40q41 47 108 47z"/>
<glyph glyph-name="Euro" horiz-adv-x="659" unicode="€" d="M426 315v-67h-211q21 -81 71 -126.5t120 -45.5q94 0 162 75l61 -71q-89 -94 -223 -94q-113 0 -192 69.5t-105 192.5h-74v67h64q-2 17 -2 52q0 19 2 55h-64v67h74q27 122 105 190.5t190 68.5q135 0 221 -93l-61 -71q-63 74 -160 74q-69 0 -118.5 -44.5t-70.5 -124.5h211 v-67h-223q-2 -36 -2 -55q0 -20 2 -52h223z"/>
<glyph glyph-name="afii61289" horiz-adv-x="584" unicode="ℓ" d="M332 676q-75 0 -75 -92v-240q150 140 150 250q0 38 -18.5 60t-56.5 22zM332 750q72 0 114 -41t42 -111q0 -91 -59.5 -173.5t-164.5 -177.5v-81q0 -46 17 -69.5t61 -23.5q20 0 38.5 7.5t34.5 24t24 26t23 31.5l14 23l57 -45q-34 -58 -87.5 -104.5t-124.5 -46.5 q-144 0 -144 141v49q-75 -66 -88 -76l-47 68q81 68 131 115v290q0 88 38 131t121 43z"/>
<glyph glyph-name="trademark" horiz-adv-x="845" unicode="™" d="M807 742v-383h-73v170l-123 -173h-4l-122 173v-170h-73v383h2l195 -265l196 265h2zM354 735v-71h-129v-305h-74v305h-129v71h332z"/>
<glyph glyph-name="Omega" horiz-adv-x="858" unicode="Ω" d="M433 749q147 0 240.5 -97t93.5 -246q0 -171 -127 -300h182v-106h-337v101q172 124 172 301q0 108 -60 174.5t-164 66.5q-103 0 -163.5 -67t-60.5 -174q0 -177 172 -301v-101h-336v106h182q-127 129 -127 300q0 149 93 246t240 97z"/>
<glyph glyph-name="estimated" horiz-adv-x="591" unicode="℮" d="M308 536q109 0 178.5 -68.5t69.5 -189.5h-407v-165q0 -40 31 -58q53 -39 128 -39q138 0 222 127l23 -14q-89 -141 -245 -141q-117 0 -195 76.5t-78 197.5t78.5 197.5t194.5 76.5zM308 508q-81 0 -127 -39q-32 -19 -32 -57v-106h299v109q0 25 -5.5 39t-22.5 23 q-45 31 -112 31z"/>
<glyph glyph-name="partialdiff" horiz-adv-x="538" unicode="∂" d="M271 373q-60 0 -99.5 -41t-39.5 -104q0 -62 39.5 -102.5t99.5 -40.5q59 0 98 40.5t39 102.5q0 63 -39 104t-98 41zM251 748q254 0 254 -428q0 -137 -34 -203q-62 -125 -201 -125q-102 0 -169.5 66.5t-67.5 169.5q0 104 65.5 170.5t165.5 66.5q91 0 142 -72 q-7 262 -162 262q-84 0 -132 -74l-67 62q76 105 206 105z"/>
<glyph glyph-name="uni2206" horiz-adv-x="721" unicode="∆" d="M361 469l-197 -392h393zM361 646l325 -646h-651z"/>
<glyph glyph-name="product" horiz-adv-x="706" unicode="∏" d="M671 740v-92h-126v-749h-91v749h-202v-749h-92v749h-125v92h636z"/>
<glyph glyph-name="summation" horiz-adv-x="610" unicode="∑" d="M563 740v-98h-389l183 -259l-190 -285h408v-98h-540v67l208 314l-205 292v67h525z"/>
<glyph glyph-name="minus" horiz-adv-x="486" unicode="−" d="M446 395v-90h-407v90h407z"/>
<glyph glyph-name="radical" horiz-adv-x="697" unicode="√" d="M585 695l82 -35l-296 -733l-173 334l-120 -71l-45 72l214 127l121 -247z"/>
<glyph glyph-name="infinity" horiz-adv-x="749" unicode="∞" d="M194 372q-35 0 -56 -25t-21 -61t21 -60.5t56 -24.5q51 0 100 63l16 21l-17 20q-55 67 -99 67zM545 384q-33 0 -59 -20t-60 -60l-15 -19l18 -20q24 -26 34 -36.5t34.5 -25t47.5 -14.5q40 0 64.5 28.5t24.5 69.5t-24.5 69t-64.5 28zM544 468q77 0 125 -52t48 -129 t-48 -129.5t-125 -52.5q-35 0 -69.5 17t-52 32t-44.5 42l-19 20l-17 -20q-74 -76 -146 -76t-114.5 47.5t-42.5 118.5t42.5 119t114.5 48q42 0 74.5 -20t70.5 -59l18 -20l13 16q29 32 50 50t53.5 33t68.5 15z"/>
<glyph glyph-name="integral" horiz-adv-x="434" unicode="∫" d="M297 750q65 0 115 -24l-19 -76q-36 18 -74 18q-61 0 -61 -85v-603q0 -90 -32 -130t-99 -40t-117 24l19 76q32 -18 76 -18q65 0 65 88v603q0 89 31 128t96 39z"/>
<glyph glyph-name="approxequal" horiz-adv-x="588" unicode="≈" d="M190 548q45 0 80.5 -22t66 -43.5t61.5 -21.5q74 0 105 79l59 -45q-23 -58 -65.5 -91.5t-98.5 -33.5q-36 0 -66 13.5t-47 30t-42 30t-53 13.5q-75 0 -105 -79l-59 45q23 58 65.5 91.5t98.5 33.5zM190 326q45 0 80.5 -22t66 -43.5t61.5 -21.5q74 0 105 79l59 -45 q-23 -58 -65.5 -91.5t-98.5 -33.5q-36 0 -66 14t-47 30t-42 30t-53 14q-74 0 -105 -79l-59 45q23 58 65.5 91t98.5 33z"/>
<glyph glyph-name="notequal" horiz-adv-x="486" unicode="≠" d="M446 275v-90h-221l-36 -98h-86l36 98h-100v90h133l54 148h-187v91h221l44 118h86l-44 -118h100v-91h-134l-54 -148h188z"/>
<glyph glyph-name="lessequal" horiz-adv-x="354" unicode="≤" d="M334 209v-90h-314v90h314zM334 599l-189 -168l189 -167h-128l-186 165v4l186 166h128z"/>
<glyph glyph-name="greaterequal" horiz-adv-x="354" unicode="≥" d="M334 209v-90h-314v90h314zM148 599l186 -166v-4l-186 -165h-128l189 167l-189 168h128z"/>
<glyph glyph-name="lozenge" horiz-adv-x="569" unicode="◊" d="M291 597l-153 -261l153 -262l152 262zM321 738l222 -402l-222 -401h-61l-223 401l223 402h61z"/>
<glyph glyph-name="commaaccent" horiz-adv-x="158" unicode="" d="M59 -51q30 0 49.5 -19.5t19.5 -49.5q0 -24 -12 -40l-78 -137h-4v242q11 4 25 4z"/>
<glyph glyph-name="CR" horiz-adv-x="250"/>
<glyph glyph-name="germandbls.cap" d="M331 748q149 0 253 -116l-129 -195q33 -10 61.5 -26.5t54.5 -42t41 -64t15 -86.5q0 -101 -68.5 -166t-178.5 -65q-88 0 -141 32l36 86q42 -24 105 -24q57 0 97.5 38.5t40.5 99.5q0 75 -59 112t-152 37l-2 5l155 238q-45 42 -129 42q-73 0 -116.5 -42.5t-43.5 -119.5v-491 h-100v491q0 116 73.5 186.5t186.5 70.5z" horiz-adv-x="660"/>
<glyph glyph-name="endash_guilsinglright" d="M332 539l289 -262l-289 -262l-47 57l184 164h-429v81h430l-185 165z" horiz-adv-x="662"/>
<glyph glyph-name="emdash_guilsinglright" d="M657 539l290 -262l-290 -262l-47 57l184 164h-754v81h755l-185 165z" horiz-adv-x="987"/>
<glyph glyph-name="guilsinglleft_endash" d="M331 539l46 -57l-185 -165h429v-81h-428l184 -164l-46 -57l-291 262z" horiz-adv-x="662"/>
<glyph glyph-name="guilsinglleft_emdash" d="M331 539l46 -57l-185 -165h755v-81h-754l184 -164l-46 -57l-291 262z" horiz-adv-x="987"/>
<glyph glyph-name="at.cap" d="M427 510q-55 0 -90 -40t-35 -105t35 -104.5t90 -39.5q70 0 115 65v159q-47 65 -115 65zM429 762q177 0 288 -108.5t111 -281.5q0 -102 -45.5 -163t-125.5 -61q-77 0 -102 60l-2 5q-52 -65 -145 -65q-84 0 -137 61.5t-53 155.5q0 95 53 156.5t137 61.5q93 0 138 -57l3 49 h76v-310q0 -44 41 -44q39 0 61 41.5t22 109.5q0 138 -88.5 226.5t-231.5 88.5q-140 0 -229.5 -90.5t-89.5 -229.5q0 -140 88 -229.5t226 -89.5q69 0 129 24l23 -71q-70 -28 -152 -28q-173 0 -283 110.5t-110 283.5q0 172 111.5 283.5t286.5 111.5z" horiz-adv-x="859"/>
<glyph glyph-name="grave.cap" d="M147 887l133 -115h-108l-146 115h121z" horiz-adv-x="295"/>
<glyph glyph-name="acute.cap" d="M269 887l-146 -115h-108l133 115h121z" horiz-adv-x="295"/>
<glyph glyph-name="circumflex.cap" d="M179 916l159 -145h-91l-68 61l-68 -61h-91z" horiz-adv-x="359"/>
<glyph glyph-name="caron.cap" d="M338 907l-159 -144l-159 144h91l68 -60l68 60h91z" horiz-adv-x="359"/>
<glyph glyph-name="tilde.cap" d="M122 915q29 0 49.5 -12t29.5 -27t22 -27t28 -12q32 0 32 72h64q0 -68 -28.5 -103.5t-73.5 -35.5q-29 0 -49 12t-28 27t-20.5 27t-28.5 12q-34 0 -34 -72h-65q0 70 28.5 104.5t73.5 34.5z" horiz-adv-x="368"/>
<glyph glyph-name="dieresis.cap" d="M245 883q23 0 39 -15.5t16 -38.5t-16 -38.5t-39 -15.5t-38.5 15.5t-15.5 38.5t15.5 38.5t38.5 15.5zM74 883q24 0 39.5 -15.5t15.5 -38.5t-15.5 -38.5t-39.5 -15.5q-23 0 -38.5 15.5t-15.5 38.5t15.5 38.5t38.5 15.5z" horiz-adv-x="320"/>
<glyph glyph-name="macron.cap" d="M280 857v-69h-260v69h260z" horiz-adv-x="300"/>
<glyph glyph-name="breve.cap" d="M325 917q0 -63 -43.5 -104t-108.5 -41q-66 0 -109.5 41t-43.5 104h71q0 -32 23 -55t59 -23t58.5 23t22.5 55h71z" horiz-adv-x="345"/>
<glyph glyph-name="ring.cap" d="M130 931q-22 0 -37 -15.5t-15 -37.5q0 -23 15 -37.5t37 -14.5t37 14.5t15 37.5q0 22 -15 37.5t-37 15.5zM130 986q47 0 78 -31t31 -77q0 -47 -31 -77.5t-78 -30.5t-78.5 30.5t-31.5 77.5q0 46 31.5 77t78.5 31z" horiz-adv-x="260"/>
<glyph glyph-name="hungarumlaut.cap" d="M404 893l-98 -119h-85l96 119h87zM242 893l-98 -119h-85l96 119h87z" horiz-adv-x="389"/>
<glyph glyph-name="dotaccent.cap" d="M79 890q26 0 43 -17t17 -43t-17 -42.5t-43 -16.5q-25 0 -42 16.5t-17 42.5t16.5 43t42.5 17z" horiz-adv-x="160"/>
<glyph glyph-name="parenleft.cap" d="M197 775l74 -54q-59 -72 -95 -154.5t-36 -199.5t36 -199.5t95 -154.5l-74 -54q-150 180 -150 408q0 226 150 408z" horiz-adv-x="291"/>
<glyph glyph-name="parenright.cap" d="M94 775q150 -180 150 -408q0 -231 -150 -408l-74 54q60 71 95.5 154t35.5 200t-35.5 200t-95.5 154z" horiz-adv-x="291"/>
<glyph glyph-name="bracketleft.cap" d="M283 777v-80h-134v-660h134v-80h-228v820h228z" horiz-adv-x="308"/>
<glyph glyph-name="bracketright.cap" d="M259 777v-820h-234v80h139v660h-139v80h234z" horiz-adv-x="314"/>
<glyph glyph-name="braceleft.cap" d="M310 777v-80q-57 0 -84 -29t-27 -71q0 -16 3 -35l9 -65q6 -22 6 -40q0 -24 -13.5 -50t-49.5 -40q36 -14 49.5 -40t13.5 -50q0 -18 -6 -40l-9 -65q-3 -19 -3 -35q0 -42 27 -71t84 -29v-80q-114 0 -162 51t-48 113q0 32 10 69l9 63q3 13 3 24q0 28 -22.5 52.5t-73.5 35.5v4 q51 11 73.5 35.5t22.5 52.5q0 12 -3 24l-9 63q-10 37 -10 69q0 63 48 113.5t162 50.5z" horiz-adv-x="335"/>
<glyph glyph-name="braceright.cap" d="M25 777q114 0 162.5 -51t48.5 -114q0 -31 -10 -68l-10 -63q-3 -13 -3 -24q0 -28 22.5 -52.5t73.5 -35.5v-4q-51 -11 -73.5 -35.5t-22.5 -52.5q0 -12 3 -24l10 -63q10 -37 10 -68q0 -63 -48.5 -114t-162.5 -51v80q57 0 84 29t27 71q0 16 -3 35l-9 65q-6 22 -6 40 q0 24 13.5 50t49.5 40q-36 14 -49.5 40t-13.5 50q0 18 6 40l9 65q3 19 3 35q0 42 -27 71t-84 29v80z" horiz-adv-x="335"/>
<glyph glyph-name="guilsinglleft.cap" d="M333 576l-202 -222l202 -222h-119l-199 220v4l199 220h119z" horiz-adv-x="348"/>
<glyph glyph-name="guilsinglright.cap" d="M134 576l199 -220v-4l-199 -220h-119l202 222l-202 222h119z" horiz-adv-x="348"/>
<glyph glyph-name="guillemotleft.cap" d="M483 576l-145 -222l145 -222h-92l-147 220v4l147 220h92zM255 576l-145 -222l145 -222h-93l-147 220v4l147 220h93z" horiz-adv-x="498"/>
<glyph glyph-name="guillemotright.cap" d="M336 576l147 -220v-4l-147 -220h-92l144 222l-144 222h92zM107 576l148 -220v-4l-148 -220h-92l145 222l-145 222h92z" horiz-adv-x="498"/>
<glyph glyph-name="exclamdown.cap" d="M132 620q-28 0 -46.5 18.5t-18.5 45.5q0 28 18.5 46t46.5 18q27 0 45 -18t18 -46q0 -27 -18 -45.5t-45 -18.5zM83 0v530h98v-530h-98z" horiz-adv-x="262"/>
<glyph glyph-name="questiondown.cap" d="M252 620q-28 0 -46 18.5t-18 45.5q0 28 18 46t46 18t46 -18t18 -46q0 -27 -18 -45.5t-46 -18.5zM253 -13q-95 0 -155.5 57t-60.5 144q0 48 17 84.5t41.5 59t49 43t41.5 47t17 59.5v49h99v-61q0 -41 -16.5 -73.5t-40.5 -54t-48 -42t-40.5 -48.5t-16.5 -62q0 -52 32 -82 t82 -30q100 0 120 104l97 -17q-38 -177 -218 -177z" horiz-adv-x="491"/>
<glyph glyph-name="endash.cap" d="M515 402v-91h-475v91h475z" horiz-adv-x="556"/>
<glyph glyph-name="periodcentered.cap" d="M96 420q28 0 47 -19t19 -47t-19 -46.5t-47 -18.5t-47 18.5t-19 46.5t19 47t47 19z" horiz-adv-x="192"/>
<glyph glyph-name="emdash.cap" d="M760 402v-91h-720v91h720z" horiz-adv-x="800"/>
<glyph glyph-name="hyphen.cap" d="M396 402v-91h-356v91h356z" horiz-adv-x="437"/>
<glyph glyph-name="zero.dnom" d="M196 361q-83 0 -83 -151q0 -152 83 -152q40 0 60.5 40.5t20.5 111.5t-20.5 111t-60.5 40zM196 427q73 0 114.5 -58.5t41.5 -158.5t-41.5 -159t-114.5 -59q-74 0 -116 59t-42 159t42 158.5t116 58.5z" horiz-adv-x="390"/>
<glyph glyph-name="one.dnom" d="M203 427v-427h-74v308l-71 -45l-32 67l175 97h2z" horiz-adv-x="266"/>
<glyph glyph-name="two.dnom" d="M174 427q63 0 101.5 -36.5t38.5 -93.5q0 -58 -53 -124l-89 -107h146v-66h-273v4l154 207q40 48 40 87q0 29 -18 46t-47 17q-58 0 -70 -65l-67 15q23 116 137 116z" horiz-adv-x="354"/>
<glyph glyph-name="three.dnom" d="M175 427q59 0 96.5 -35.5t37.5 -89.5q0 -60 -55 -86q67 -27 67 -95q0 -57 -39 -93t-104 -36q-115 0 -145 109l66 16q19 -58 79 -58q31 0 50 18t19 48q0 27 -20.5 45.5t-53.5 18.5h-47v57h49q26 1 43.5 15.5t17.5 41.5q0 26 -18 42t-45 16q-51 0 -68 -53l-64 28 q30 91 134 91z" horiz-adv-x="350"/>
<glyph glyph-name="four.dnom" d="M224 245l-94 -122h94v122zM295 428v-304h55v-60h-55v-64h-72v65h-216v2l286 361h2z" horiz-adv-x="375"/>
<glyph glyph-name="five.dnom" d="M300 419v-66h-165v-102q22 11 48 11q64 0 104.5 -35.5t40.5 -100.5q0 -59 -39.5 -96.5t-104.5 -37.5q-110 0 -145 93l63 31q15 -57 77 -57q32 0 53 20t21 51q0 30 -21 50t-56 20q-38 0 -66 -22l-49 21v220h239z" horiz-adv-x="360"/>
<glyph glyph-name="six.dnom" d="M183 210q-32 0 -53.5 -22t-21.5 -56t21.5 -55.5t53.5 -21.5q33 0 54.5 21.5t21.5 55.5t-21.5 56t-54.5 22zM285 419l-99 -147q60 -2 103 -41.5t43 -98.5q0 -60 -43.5 -100t-105.5 -40t-105 39.5t-43 100.5q0 48 30 86l136 201h84z" horiz-adv-x="367"/>
<glyph glyph-name="seven.dnom" d="M338 419v-4l-217 -415h-81l189 351h-196v68h305z" horiz-adv-x="361"/>
<glyph glyph-name="eight.dnom" d="M181 366q-27 0 -45.5 -17.5t-18.5 -42.5q0 -27 18.5 -43.5t45.5 -16.5q28 0 46.5 16.5t18.5 43.5q0 26 -18.5 43t-46.5 17zM181 186q-32 0 -53.5 -19t-21.5 -48t21.5 -47.5t53.5 -18.5q33 0 55 18.5t22 47.5t-22 48t-55 19zM181 427q55 0 93.5 -33.5t38.5 -84.5 q0 -56 -51 -87q68 -36 68 -101q0 -56 -43.5 -92.5t-105.5 -36.5q-61 0 -104 37t-43 92q0 32 18 58.5t49 41.5q-50 32 -50 88q0 51 38 84.5t92 33.5z" horiz-adv-x="367"/>
<glyph glyph-name="nine.dnom" d="M184 364q-33 0 -54.5 -21.5t-21.5 -55.5q0 -35 21.5 -56.5t54.5 -21.5q32 0 53.5 21.5t21.5 56.5q0 34 -21.5 55.5t-53.5 21.5zM184 426q62 0 105 -39.5t43 -99.5q0 -50 -30 -86l-136 -201h-84l99 147q-61 1 -103.5 41t-42.5 99q0 60 43.5 99.5t105.5 39.5z" horiz-adv-x="367"/>
<glyph glyph-name="zero.numr" d="M196 675q-83 0 -83 -151q0 -152 83 -152q40 0 60.5 40.5t20.5 111.5t-20.5 111t-60.5 40zM196 741q73 0 114.5 -58.5t41.5 -158.5t-41.5 -159t-114.5 -59q-74 0 -116 59t-42 159t42 158.5t116 58.5z" horiz-adv-x="381"/>
<glyph glyph-name="one.numr" d="M203 741v-427h-74v308l-71 -45l-32 67l175 97h2z" horiz-adv-x="257"/>
<glyph glyph-name="two.numr" d="M174 741q63 0 101.5 -36.5t38.5 -93.5q0 -58 -53 -124l-89 -107h146v-66h-273v4l154 207q40 48 40 87q0 29 -18 46t-47 17q-58 0 -70 -65l-67 15q23 116 137 116z" horiz-adv-x="345"/>
<glyph glyph-name="three.numr" d="M175 741q59 0 96.5 -35.5t37.5 -89.5q0 -60 -55 -86q67 -27 67 -95q0 -57 -39 -93t-104 -36q-115 0 -145 109l66 16q19 -58 79 -58q31 0 50 18t19 48q0 27 -20.5 45.5t-53.5 18.5h-47v57h49q26 1 43.5 15.5t17.5 41.5q0 26 -18 42t-45 16q-51 0 -68 -53l-64 28 q30 91 134 91z" horiz-adv-x="340"/>
<glyph glyph-name="four.numr" d="M224 559l-94 -122h94v122zM295 742v-304h55v-60h-55v-64h-72v65h-216v2l286 361h2z" horiz-adv-x="366"/>
<glyph glyph-name="five.numr" d="M300 733v-66h-165v-102q22 11 48 11q64 0 104.5 -35.5t40.5 -100.5q0 -59 -39.5 -96.5t-104.5 -37.5q-110 0 -145 93l63 31q15 -57 77 -57q32 0 53 20t21 51q0 30 -21 50t-56 20q-38 0 -66 -22l-49 21v220h239z" horiz-adv-x="351"/>
<glyph glyph-name="six.numr" d="M183 524q-32 0 -53.5 -22t-21.5 -56t21.5 -55.5t53.5 -21.5q33 0 54.5 21.5t21.5 55.5t-21.5 56t-54.5 22zM285 733l-99 -147q60 -2 103 -41.5t43 -98.5q0 -60 -43.5 -100t-105.5 -40t-105 39.5t-43 100.5q0 48 30 86l136 201h84z" horiz-adv-x="358"/>
<glyph glyph-name="seven.numr" d="M338 733v-4l-217 -415h-81l189 351h-196v68h305z" horiz-adv-x="352"/>
<glyph glyph-name="eight.numr" d="M181 680q-27 0 -45.5 -17.5t-18.5 -42.5q0 -27 18.5 -43.5t45.5 -16.5q28 0 46.5 16.5t18.5 43.5q0 26 -18.5 43t-46.5 17zM181 500q-32 0 -53.5 -19t-21.5 -48t21.5 -47.5t53.5 -18.5q33 0 55 18.5t22 47.5t-22 48t-55 19zM181 741q55 0 93.5 -33.5t38.5 -84.5 q0 -56 -51 -87q68 -36 68 -101q0 -56 -43.5 -92.5t-105.5 -36.5q-61 0 -104 37t-43 92q0 32 18 58.5t49 41.5q-50 32 -50 88q0 51 38 84.5t92 33.5z" horiz-adv-x="358"/>
<glyph glyph-name="nine.numr" d="M184 678q-33 0 -54.5 -21.5t-21.5 -55.5q0 -35 21.5 -56.5t54.5 -21.5q32 0 53.5 21.5t21.5 56.5q0 34 -21.5 55.5t-53.5 21.5zM184 740q62 0 105 -39.5t43 -99.5q0 -50 -30 -86l-136 -201h-84l99 147q-61 1 -103.5 41t-42.5 99q0 60 43.5 99.5t105.5 39.5z" horiz-adv-x="358"/>
<glyph glyph-name="zero.subs" d="M196 261q-83 0 -83 -151q0 -152 83 -152q40 0 60.5 40.5t20.5 111.5t-20.5 111t-60.5 40zM196 327q73 0 114.5 -58.5t41.5 -158.5t-41.5 -159t-114.5 -59q-74 0 -116 59t-42 159t42 158.5t116 58.5z" horiz-adv-x="381"/>
<glyph glyph-name="one.subs" d="M203 327v-427h-74v308l-71 -45l-32 67l175 97h2z" horiz-adv-x="257"/>
<glyph glyph-name="two.subs" d="M174 327q63 0 101.5 -36.5t38.5 -93.5q0 -58 -53 -124l-89 -107h146v-66h-273v4l154 207q40 48 40 87q0 29 -18 46t-47 17q-58 0 -70 -65l-67 15q23 116 137 116z" horiz-adv-x="345"/>
<glyph glyph-name="three.subs" d="M175 327q59 0 96.5 -35.5t37.5 -89.5q0 -60 -55 -86q67 -27 67 -95q0 -57 -39 -93t-104 -36q-115 0 -145 109l66 16q19 -58 79 -58q31 0 50 18t19 48q0 27 -20.5 45.5t-53.5 18.5h-47v57h49q26 1 43.5 15.5t17.5 41.5q0 26 -18 42t-45 16q-51 0 -68 -53l-64 28 q30 91 134 91z" horiz-adv-x="340"/>
<glyph glyph-name="four.subs" d="M224 145l-94 -122h94v122zM295 328v-304h55v-60h-55v-64h-72v65h-216v2l286 361h2z" horiz-adv-x="366"/>
<glyph glyph-name="five.subs" d="M300 319v-66h-165v-102q22 11 48 11q64 0 104.5 -35.5t40.5 -100.5q0 -59 -39.5 -96.5t-104.5 -37.5q-110 0 -145 93l63 31q15 -57 77 -57q32 0 53 20t21 51q0 30 -21 50t-56 20q-38 0 -66 -22l-49 21v220h239z" horiz-adv-x="351"/>
<glyph glyph-name="six.subs" d="M183 110q-32 0 -53.5 -22t-21.5 -56t21.5 -55.5t53.5 -21.5q33 0 54.5 21.5t21.5 55.5t-21.5 56t-54.5 22zM285 319l-99 -147q60 -2 103 -41.5t43 -98.5q0 -60 -43.5 -100t-105.5 -40t-105 39.5t-43 100.5q0 48 30 86l136 201h84z" horiz-adv-x="358"/>
<glyph glyph-name="seven.subs" d="M338 319v-4l-217 -415h-81l189 351h-196v68h305z" horiz-adv-x="352"/>
<glyph glyph-name="eight.subs" d="M181 266q-27 0 -45.5 -17.5t-18.5 -42.5q0 -27 18.5 -43.5t45.5 -16.5q28 0 46.5 16.5t18.5 43.5q0 26 -18.5 43t-46.5 17zM181 86q-32 0 -53.5 -19t-21.5 -48t21.5 -47.5t53.5 -18.5q33 0 55 18.5t22 47.5t-22 48t-55 19zM181 327q55 0 93.5 -33.5t38.5 -84.5 q0 -56 -51 -87q68 -36 68 -101q0 -56 -43.5 -92.5t-105.5 -36.5q-61 0 -104 37t-43 92q0 32 18 58.5t49 41.5q-50 32 -50 88q0 51 38 84.5t92 33.5z" horiz-adv-x="358"/>
<glyph glyph-name="nine.subs" d="M184 264q-33 0 -54.5 -21.5t-21.5 -55.5q0 -35 21.5 -56.5t54.5 -21.5q32 0 53.5 21.5t21.5 56.5q0 34 -21.5 55.5t-53.5 21.5zM184 326q62 0 105 -39.5t43 -99.5q0 -50 -30 -86l-136 -201h-84l99 147q-61 1 -103.5 41t-42.5 99q0 60 43.5 99.5t105.5 39.5z" horiz-adv-x="358"/>
<glyph glyph-name="zero.lnum" d="M300 659q-78 0 -117.5 -77.5t-39.5 -213.5q0 -137 39.5 -214.5t117.5 -77.5t117.5 77.5t39.5 214.5q0 136 -39.5 213.5t-117.5 77.5zM300 748q122 0 189.5 -102t67.5 -278q0 -177 -67.5 -279t-189.5 -102t-189.5 102t-67.5 279q0 176 67.5 278t189.5 102z" horiz-adv-x="600"/>
<glyph glyph-name="one.lnum" d="M383 748v-657h138v-91h-382v91h145v478l-167 -96l-47 85l309 190h4z" horiz-adv-x="600"/>
<glyph glyph-name="two.lnum" d="M291 748q100 0 162 -61t62 -158q0 -65 -22 -116t-70 -112l-168 -211h269v-90h-441v6l262 348q39 52 54.5 90t15.5 87q0 59 -34.5 93t-89.5 34q-107 0 -131 -123l-90 21q38 192 221 192z" horiz-adv-x="600"/>
<glyph glyph-name="three.lnum" d="M294 748q96 0 155.5 -58.5t59.5 -150.5q0 -111 -98 -156q56 -22 89 -66.5t33 -106.5q0 -100 -63.5 -161.5t-167.5 -61.5q-182 0 -239 182l90 24q19 -57 53.5 -86.5t94.5 -29.5q59 0 95.5 37t36.5 98q0 57 -39.5 94t-102.5 37h-81v79h82q49 1 83.5 31t34.5 85t-33 87.5 t-84 32.5q-96 0 -131 -105l-86 37q56 158 218 158z" horiz-adv-x="600"/>
<glyph glyph-name="four.lnum" d="M364 457l-163 -230h163v230zM462 741v-513h99v-90h-99v-138h-99v138h-331v4l425 599h5z" horiz-adv-x="600"/>
<glyph glyph-name="five.lnum" d="M495 735v-90h-286v-217q44 24 98 24q104 0 169 -62t65 -171q0 -100 -64 -166t-169 -66q-176 0 -236 159l86 40q34 -109 144 -109q61 0 100 41.5t39 104.5q0 64 -39.5 104.5t-104.5 40.5q-70 0 -124 -45l-63 27v385h385z" horiz-adv-x="600"/>
<glyph glyph-name="six.lnum" d="M299 382q-60 0 -100 -43t-40 -111q0 -67 40 -109.5t100 -42.5q59 0 100 43t41 109q0 67 -41 110.5t-100 43.5zM299 471q100 0 170.5 -69.5t70.5 -173.5t-70 -172.5t-171 -68.5t-171 68.5t-70 172.5q0 89 52 154l231 353h117l-173 -265q3 0 7 0.5t7 0.5z" horiz-adv-x="600"/>
<glyph glyph-name="seven.lnum" d="M564 735v-6l-370 -729h-108l332 644h-351v91h497z" horiz-adv-x="600"/>
<glyph glyph-name="eight.lnum" d="M300 660q-49 0 -83 -33t-34 -81q0 -51 34 -85t83 -34t83 34t34 85q0 48 -34 81t-83 33zM300 339q-59 0 -99.5 -38t-40.5 -95q0 -56 40.5 -93.5t99.5 -37.5t100 37.5t41 93.5q0 57 -41 95t-100 38zM300 748q88 0 149 -56t61 -142q0 -52 -24.5 -94t-66.5 -66 q56 -26 89.5 -74.5t33.5 -107.5q0 -95 -70.5 -158t-171.5 -63t-171 63t-70 158q0 60 33 108.5t88 72.5q-41 24 -65.5 66t-24.5 95q0 86 61 142t149 56z" horiz-adv-x="600"/>
<glyph glyph-name="nine.lnum" d="M300 659q-59 0 -100 -43t-41 -109q0 -67 41 -110.5t100 -43.5q60 0 100 43t40 111q0 67 -40 109.5t-100 42.5zM300 748q101 0 171 -68.5t70 -172.5q0 -89 -53 -155l-230 -352h-117l172 264h-13q-100 0 -170.5 69.5t-70.5 173.5t70 172.5t171 68.5z" horiz-adv-x="600"/>
<glyph glyph-name="zero.tnum" d="M295 483q-69 0 -114 -57.5t-45 -146.5t45 -145.5t114 -56.5t113.5 56.5t44.5 145.5t-44.5 146.5t-113.5 57.5zM295 570q111 0 184 -82.5t73 -208.5q0 -125 -73 -207t-184 -82q-112 0 -185 82t-73 207t73 208t185 83z" horiz-adv-x="590"/>
<glyph glyph-name="one.tnum" d="M294 570v-570h-99v389l-131 -81l-44 89l270 173h4z" horiz-adv-x="374"/>
<glyph glyph-name="two.tnum" d="M266 570q93 0 152 -56t59 -140q0 -68 -28 -114t-82 -93l-89 -77h217v-90h-443v6l221 204q33 30 43.5 40.5t29 33t24.5 42t6 44.5q0 53 -31.5 81.5t-83.5 28.5q-75 0 -110 -75l-82 41q57 124 197 124z" horiz-adv-x="530"/>
<glyph glyph-name="three.tnum" d="M264 570q96 0 156 -57t60 -146q0 -108 -99 -151q57 -21 89.5 -64.5t32.5 -104.5q0 -97 -63.5 -156.5t-167.5 -59.5q-181 0 -238 177l90 23q38 -112 148 -112q59 0 95.5 35.5t36.5 94.5q0 56 -40 91.5t-103 35.5h-80v78h82q49 0 83.5 29t34.5 83q0 53 -33 84.5t-85 31.5 q-97 0 -130 -102l-87 36q56 154 218 154z" horiz-adv-x="524"/>
<glyph glyph-name="four.tnum" d="M339 294l-163 -223h163v223zM437 570v-498h99v-87h-99v-134h-99v134h-331v4l425 581h5z" horiz-adv-x="557"/>
<glyph glyph-name="five.tnum" d="M463 559v-87h-285v-210q46 23 97 23q104 0 169 -60.5t65 -166.5q0 -97 -63.5 -161t-169.5 -64q-175 0 -235 155l85 39q35 -106 144 -106q61 0 100 40t39 102q0 61 -39.5 100.5t-103.5 39.5q-69 0 -125 -43l-63 26v373h385z" horiz-adv-x="538"/>
<glyph glyph-name="six.tnum" d="M272 370q-59 0 -99 -42t-40 -107t40 -106.5t99 -41.5q60 0 101 41.5t41 106.5t-41 107t-101 42zM272 457q101 0 171.5 -67.5t70.5 -168.5t-70.5 -167.5t-171.5 -66.5t-170.5 66.5t-69.5 167.5q0 86 50 147l233 345h117l-173 -256h13z" horiz-adv-x="547"/>
<glyph glyph-name="seven.tnum" d="M524 560v-6l-370 -707h-108l330 624h-349v89h497z" horiz-adv-x="538"/>
<glyph glyph-name="eight.tnum" d="M270 640q-49 0 -83 -31.5t-34 -78.5q0 -50 34 -83t83 -33t83 33t34 83q0 47 -34 78.5t-83 31.5zM270 329q-59 0 -99.5 -37t-40.5 -92q0 -54 40.5 -90.5t99.5 -36.5t100 36.5t41 90.5q0 55 -41 92t-100 37zM270 726q88 0 149 -54.5t61 -137.5q0 -51 -24.5 -92t-66.5 -64 q56 -25 89.5 -72t33.5 -104q0 -92 -70.5 -153.5t-171.5 -61.5q-100 0 -170.5 61t-70.5 154q0 58 33 104.5t88 70.5q-41 23 -65.5 64.5t-24.5 92.5q0 83 61 137.5t149 54.5z" horiz-adv-x="547"/>
<glyph glyph-name="nine.tnum" d="M274 484q-60 0 -100.5 -41.5t-40.5 -106.5t40.5 -107t100.5 -42q59 0 99.5 42t40.5 107t-40.5 106.5t-99.5 41.5zM274 570q101 0 170.5 -66.5t69.5 -167.5q0 -74 -39 -130h1l-244 -362h-118l174 257h-14q-101 0 -171.5 67t-70.5 168t70.5 167.5t171.5 66.5z" horiz-adv-x="547"/>
<glyph glyph-name="a.sups" d="M204 677q-43 0 -70 -31t-27 -82t27 -82t70 -31q53 0 88 52v123q-35 51 -88 51zM184 748q73 0 113 -48l3 41h73v-353h-73l-3 41q-40 -48 -113 -48q-69 0 -113.5 51.5t-44.5 131.5t44.5 132t113.5 52z" horiz-adv-x="430"/>
<glyph glyph-name="b.sups" d="M226 677q-53 0 -88 -51v-123q35 -52 88 -52q43 0 70 31t27 82t-27 82t-70 31zM138 920v-214q38 42 108 42q69 0 113.5 -52t44.5 -132t-44.5 -131.5t-113.5 -51.5q-73 0 -113 48l-3 -41h-72v532h80z" horiz-adv-x="430"/>
<glyph glyph-name="c.sups" d="M206 748q95 0 148 -79l-59 -44q-34 53 -89 53q-47 0 -73 -31.5t-26 -82.5q0 -50 26.5 -81.5t73.5 -31.5q57 0 90 53l59 -44q-53 -79 -149 -79q-81 0 -131 51.5t-50 131.5t49.5 132t130.5 52z" horiz-adv-x="370"/>
<glyph glyph-name="d.sups" d="M204 677q-43 0 -70 -31t-27 -82t27 -82t70 -31q53 0 88 52v123q-35 51 -88 51zM373 920v-532h-73l-3 41q-40 -48 -113 -48q-69 0 -113.5 51.5t-44.5 131.5t44.5 132t113.5 52q70 0 108 -42v214h81z" horiz-adv-x="430"/>
<glyph glyph-name="e.sups" d="M198 682q-38 0 -63 -23t-28 -59h178q-3 36 -26 59t-61 23zM201 748q78 0 120.5 -51.5t42.5 -129.5v-28h-257q6 -90 101 -90q58 0 92 43l55 -47q-55 -64 -148 -64q-83 0 -132 51t-49 132q0 80 48.5 132t126.5 52z" horiz-adv-x="392"/>
<glyph glyph-name="f.sups" d="M210 920q49 0 79 -24l-30 -64q-18 18 -44 18q-24 0 -38 -17t-14 -44v-48h89v-69h-89v-284h-80v284h-64v69h64v44q0 59 34.5 97t92.5 38z" horiz-adv-x="271"/>
<glyph glyph-name="g.sups" d="M204 680q-43 0 -70 -30.5t-27 -80.5t27 -80.5t70 -30.5q53 0 88 50v121q-36 51 -88 51zM184 748q74 0 113 -47l4 40h72v-342q0 -83 -50.5 -131t-134.5 -48q-102 0 -165 75l53 52q45 -57 112 -57q48 0 76 29.5t28 77.5v33q-39 -41 -108 -41t-113.5 51t-44.5 129t44 128.5 t114 50.5z" horiz-adv-x="431"/>
<glyph glyph-name="h.sups" d="M138 920v-218q38 46 103 46q63 0 98 -41.5t35 -112.5v-206h-81v202q0 37 -19.5 59.5t-52.5 22.5q-48 0 -83 -49v-235h-80v532h80z" horiz-adv-x="423"/>
<glyph glyph-name="i.sups" d="M98 904q21 0 35 -14.5t14 -36.5t-14 -36t-35 -14q-22 0 -36 14t-14 36t14 36.5t36 14.5zM137 741v-353h-79v353h79z" horiz-adv-x="195"/>
<glyph glyph-name="j.sups" d="M108 904q22 0 36 -14.5t14 -36.5t-14 -36t-36 -14t-36 14t-14 36t14 36.5t36 14.5zM148 741v-386q0 -64 -43.5 -99.5t-114.5 -35.5v70q35 0 56.5 16.5t21.5 42.5v392h80z" horiz-adv-x="205"/>
<glyph glyph-name="k.sups" d="M138 920v-384l139 205h98l-108 -151l122 -202h-93l-79 134l-96 -134h-63v532h80z" horiz-adv-x="399"/>
<glyph glyph-name="l.sups" d="M138 920v-532h-80v532h80z" horiz-adv-x="195"/>
<glyph glyph-name="m.sups" d="M241 748q73 0 107 -61q44 61 122 61q61 0 94.5 -41.5t33.5 -112.5v-206h-80v202q0 37 -18.5 59.5t-50.5 22.5q-48 0 -82 -49q1 -7 1 -21v-214h-80v202q0 37 -18.5 59.5t-50.5 22.5q-48 0 -81 -48v-236h-80v353h72l3 -40q38 47 108 47z" horiz-adv-x="647"/>
<glyph glyph-name="o.sups" d="M209 677q-45 0 -73.5 -32t-28.5 -81t28.5 -81t73.5 -32q44 0 72.5 32t28.5 81t-28.5 81t-72.5 32zM209 748q78 0 130 -52.5t52 -131.5t-52 -131t-130 -52q-80 0 -131.5 51.5t-51.5 131.5q0 79 51.5 131.5t131.5 52.5z" horiz-adv-x="417"/>
<glyph glyph-name="p.sups" d="M226 678q-53 0 -88 -52v-123q35 -51 88 -51q43 0 70 31t27 82t-27 82t-70 31zM246 748q69 0 113.5 -51.5t44.5 -131.5t-44.5 -132t-113.5 -52q-70 0 -108 42v-196h-80v514h72l3 -41q40 48 113 48z" horiz-adv-x="430"/>
<glyph glyph-name="q.sups" d="M204 678q-43 0 -70 -31t-27 -82t27 -82t70 -31q53 0 88 51v123q-35 52 -88 52zM184 748q73 0 113 -48l3 41h73v-514h-81v196q-38 -42 -108 -42q-69 0 -113.5 52t-44.5 132t44.5 131.5t113.5 51.5z" horiz-adv-x="430"/>
<glyph glyph-name="r.sups" d="M238 748v-80h-8q-56 0 -92 -52v-228h-80v353h71l5 -49q35 56 104 56z" horiz-adv-x="253"/>
<glyph glyph-name="s.sups" d="M177 748q72 0 122 -39l-35 -63q-36 31 -87 31q-58 0 -58 -39q0 -16 14.5 -23t61.5 -18q57 -13 83.5 -38t26.5 -65q0 -51 -39.5 -82t-105.5 -31q-82 0 -135 43l35 63q43 -36 101 -36q64 0 64 42q0 18 -14 25t-59 18q-59 14 -86 37.5t-27 63.5q0 51 37 81t101 30z" horiz-adv-x="335"/>
<glyph glyph-name="t.sups" d="M158 859v-118h107v-69h-107v-161q0 -27 15.5 -42.5t41.5 -15.5q30 0 48 11l21 -63q-29 -20 -76 -20q-61 0 -95.5 34t-34.5 96v161h-67v69h67v118h80z" horiz-adv-x="293"/>
<glyph glyph-name="u.sups" d="M361 741v-353h-73l-3 38q-39 -45 -109 -45q-61 0 -94 41t-33 110v209h80v-204q0 -36 18 -58t50 -22q51 0 83 47v237h81z" horiz-adv-x="418"/>
<glyph glyph-name="v.sups" d="M386 741l-186 -360h-3l-185 360h89l98 -198l97 198h90z" horiz-adv-x="397"/>
<glyph glyph-name="w.sups" d="M536 741l-161 -360h-3l-98 196l-99 -196h-2l-161 360h89l79 -190l93 190h2l92 -190l79 190h90z" horiz-adv-x="548"/>
<glyph glyph-name="x.sups" d="M350 741l-112 -175l118 -178h-95l-78 120l-78 -120h-94l117 178l-111 175h93l73 -117l74 117h93z" horiz-adv-x="368"/>
<glyph glyph-name="y.sups" d="M389 741l-263 -514h-91l125 231l-145 283h90l97 -198l98 198h89z" horiz-adv-x="405"/>
<glyph glyph-name="z.sups" d="M312 741v-3l-165 -282h164v-68h-290v3l164 281h-154v69h281z" horiz-adv-x="334"/>
<glyph glyph-name="G.smcp_I.smcp" d="M335 717q-103 0 -170 -72t-67 -179q0 -108 67 -179.5t170 -71.5t170 71.5t67 179.5q0 107 -67.5 179t-169.5 72zM335 779q130 0 217 -89.5t87 -223.5q0 -135 -86.5 -223.5t-217.5 -88.5q-132 0 -217.5 88t-85.5 224q0 134 86 223.5t217 89.5z" horiz-adv-x="670"/>
<glyph glyph-name="zero.slash" d="M451 368q0 98 -21 167l-229 -421q37 -43 94 -43q77 0 116.5 79t39.5 218zM295 663q-78 0 -117.5 -78.5t-39.5 -216.5q0 -103 20 -170l230 421q-38 44 -93 44zM295 748q122 0 189.5 -102t67.5 -278q0 -177 -67.5 -279t-189.5 -102t-190 102t-68 279q0 176 68 278t190 102z " horiz-adv-x="589"/>
</font>
</defs>
</svg>
